%TF.GenerationSoftware,KiCad,Pcbnew,9.0.1*%
%TF.CreationDate,2025-04-23T23:57:43-05:00*%
%TF.ProjectId,newfolder,6e657766-6f6c-4646-9572-2e6b69636164,1*%
%TF.SameCoordinates,Original*%
%TF.FileFunction,Legend,Top*%
%TF.FilePolarity,Positive*%
%FSLAX46Y46*%
G04 Gerber Fmt 4.6, Leading zero omitted, Abs format (unit mm)*
G04 Created by KiCad (PCBNEW 9.0.1) date 2025-04-23 23:57:43*
%MOMM*%
%LPD*%
G01*
G04 APERTURE LIST*
%ADD10C,0.150000*%
%ADD11C,0.120000*%
G04 APERTURE END LIST*
D10*
X56336779Y-154988866D02*
X57098684Y-154988866D01*
X56336779Y-162988866D02*
X57098684Y-162988866D01*
X56717731Y-163369819D02*
X56717731Y-162607914D01*
X71166667Y-155107200D02*
X71309524Y-155154819D01*
X71309524Y-155154819D02*
X71547619Y-155154819D01*
X71547619Y-155154819D02*
X71642857Y-155107200D01*
X71642857Y-155107200D02*
X71690476Y-155059580D01*
X71690476Y-155059580D02*
X71738095Y-154964342D01*
X71738095Y-154964342D02*
X71738095Y-154869104D01*
X71738095Y-154869104D02*
X71690476Y-154773866D01*
X71690476Y-154773866D02*
X71642857Y-154726247D01*
X71642857Y-154726247D02*
X71547619Y-154678628D01*
X71547619Y-154678628D02*
X71357143Y-154631009D01*
X71357143Y-154631009D02*
X71261905Y-154583390D01*
X71261905Y-154583390D02*
X71214286Y-154535771D01*
X71214286Y-154535771D02*
X71166667Y-154440533D01*
X71166667Y-154440533D02*
X71166667Y-154345295D01*
X71166667Y-154345295D02*
X71214286Y-154250057D01*
X71214286Y-154250057D02*
X71261905Y-154202438D01*
X71261905Y-154202438D02*
X71357143Y-154154819D01*
X71357143Y-154154819D02*
X71595238Y-154154819D01*
X71595238Y-154154819D02*
X71738095Y-154202438D01*
X72071429Y-154154819D02*
X72309524Y-155154819D01*
X72309524Y-155154819D02*
X72500000Y-154440533D01*
X72500000Y-154440533D02*
X72690476Y-155154819D01*
X72690476Y-155154819D02*
X72928572Y-154154819D01*
X73833333Y-155154819D02*
X73261905Y-155154819D01*
X73547619Y-155154819D02*
X73547619Y-154154819D01*
X73547619Y-154154819D02*
X73452381Y-154297676D01*
X73452381Y-154297676D02*
X73357143Y-154392914D01*
X73357143Y-154392914D02*
X73261905Y-154440533D01*
X58261905Y-155454819D02*
X58261905Y-154454819D01*
X58261905Y-154454819D02*
X58500000Y-154454819D01*
X58500000Y-154454819D02*
X58642857Y-154502438D01*
X58642857Y-154502438D02*
X58738095Y-154597676D01*
X58738095Y-154597676D02*
X58785714Y-154692914D01*
X58785714Y-154692914D02*
X58833333Y-154883390D01*
X58833333Y-154883390D02*
X58833333Y-155026247D01*
X58833333Y-155026247D02*
X58785714Y-155216723D01*
X58785714Y-155216723D02*
X58738095Y-155311961D01*
X58738095Y-155311961D02*
X58642857Y-155407200D01*
X58642857Y-155407200D02*
X58500000Y-155454819D01*
X58500000Y-155454819D02*
X58261905Y-155454819D01*
X59785714Y-155454819D02*
X59214286Y-155454819D01*
X59500000Y-155454819D02*
X59500000Y-154454819D01*
X59500000Y-154454819D02*
X59404762Y-154597676D01*
X59404762Y-154597676D02*
X59309524Y-154692914D01*
X59309524Y-154692914D02*
X59214286Y-154740533D01*
X53494819Y-159637857D02*
X53494819Y-160114047D01*
X53494819Y-160114047D02*
X52494819Y-160114047D01*
X52971009Y-159304523D02*
X52971009Y-158971190D01*
X53494819Y-158828333D02*
X53494819Y-159304523D01*
X53494819Y-159304523D02*
X52494819Y-159304523D01*
X52494819Y-159304523D02*
X52494819Y-158828333D01*
X53494819Y-158399761D02*
X52494819Y-158399761D01*
X52494819Y-158399761D02*
X52494819Y-158161666D01*
X52494819Y-158161666D02*
X52542438Y-158018809D01*
X52542438Y-158018809D02*
X52637676Y-157923571D01*
X52637676Y-157923571D02*
X52732914Y-157875952D01*
X52732914Y-157875952D02*
X52923390Y-157828333D01*
X52923390Y-157828333D02*
X53066247Y-157828333D01*
X53066247Y-157828333D02*
X53256723Y-157875952D01*
X53256723Y-157875952D02*
X53351961Y-157923571D01*
X53351961Y-157923571D02*
X53447200Y-158018809D01*
X53447200Y-158018809D02*
X53494819Y-158161666D01*
X53494819Y-158161666D02*
X53494819Y-158399761D01*
X63333333Y-161954819D02*
X63000000Y-161478628D01*
X62761905Y-161954819D02*
X62761905Y-160954819D01*
X62761905Y-160954819D02*
X63142857Y-160954819D01*
X63142857Y-160954819D02*
X63238095Y-161002438D01*
X63238095Y-161002438D02*
X63285714Y-161050057D01*
X63285714Y-161050057D02*
X63333333Y-161145295D01*
X63333333Y-161145295D02*
X63333333Y-161288152D01*
X63333333Y-161288152D02*
X63285714Y-161383390D01*
X63285714Y-161383390D02*
X63238095Y-161431009D01*
X63238095Y-161431009D02*
X63142857Y-161478628D01*
X63142857Y-161478628D02*
X62761905Y-161478628D01*
X64285714Y-161954819D02*
X63714286Y-161954819D01*
X64000000Y-161954819D02*
X64000000Y-160954819D01*
X64000000Y-160954819D02*
X63904762Y-161097676D01*
X63904762Y-161097676D02*
X63809524Y-161192914D01*
X63809524Y-161192914D02*
X63714286Y-161240533D01*
X94214285Y-151311009D02*
X94357142Y-151358628D01*
X94357142Y-151358628D02*
X94404761Y-151406247D01*
X94404761Y-151406247D02*
X94452380Y-151501485D01*
X94452380Y-151501485D02*
X94452380Y-151644342D01*
X94452380Y-151644342D02*
X94404761Y-151739580D01*
X94404761Y-151739580D02*
X94357142Y-151787200D01*
X94357142Y-151787200D02*
X94261904Y-151834819D01*
X94261904Y-151834819D02*
X93880952Y-151834819D01*
X93880952Y-151834819D02*
X93880952Y-150834819D01*
X93880952Y-150834819D02*
X94214285Y-150834819D01*
X94214285Y-150834819D02*
X94309523Y-150882438D01*
X94309523Y-150882438D02*
X94357142Y-150930057D01*
X94357142Y-150930057D02*
X94404761Y-151025295D01*
X94404761Y-151025295D02*
X94404761Y-151120533D01*
X94404761Y-151120533D02*
X94357142Y-151215771D01*
X94357142Y-151215771D02*
X94309523Y-151263390D01*
X94309523Y-151263390D02*
X94214285Y-151311009D01*
X94214285Y-151311009D02*
X93880952Y-151311009D01*
X94738095Y-150834819D02*
X95309523Y-150834819D01*
X95023809Y-151834819D02*
X95023809Y-150834819D01*
X96166666Y-151834819D02*
X95595238Y-151834819D01*
X95880952Y-151834819D02*
X95880952Y-150834819D01*
X95880952Y-150834819D02*
X95785714Y-150977676D01*
X95785714Y-150977676D02*
X95690476Y-151072914D01*
X95690476Y-151072914D02*
X95595238Y-151120533D01*
X92047618Y-168329009D02*
X92190475Y-168376628D01*
X92190475Y-168376628D02*
X92238094Y-168424247D01*
X92238094Y-168424247D02*
X92285713Y-168519485D01*
X92285713Y-168519485D02*
X92285713Y-168662342D01*
X92285713Y-168662342D02*
X92238094Y-168757580D01*
X92238094Y-168757580D02*
X92190475Y-168805200D01*
X92190475Y-168805200D02*
X92095237Y-168852819D01*
X92095237Y-168852819D02*
X91714285Y-168852819D01*
X91714285Y-168852819D02*
X91714285Y-167852819D01*
X91714285Y-167852819D02*
X92047618Y-167852819D01*
X92047618Y-167852819D02*
X92142856Y-167900438D01*
X92142856Y-167900438D02*
X92190475Y-167948057D01*
X92190475Y-167948057D02*
X92238094Y-168043295D01*
X92238094Y-168043295D02*
X92238094Y-168138533D01*
X92238094Y-168138533D02*
X92190475Y-168233771D01*
X92190475Y-168233771D02*
X92142856Y-168281390D01*
X92142856Y-168281390D02*
X92047618Y-168329009D01*
X92047618Y-168329009D02*
X91714285Y-168329009D01*
X93142856Y-168852819D02*
X93142856Y-168329009D01*
X93142856Y-168329009D02*
X93095237Y-168233771D01*
X93095237Y-168233771D02*
X92999999Y-168186152D01*
X92999999Y-168186152D02*
X92809523Y-168186152D01*
X92809523Y-168186152D02*
X92714285Y-168233771D01*
X93142856Y-168805200D02*
X93047618Y-168852819D01*
X93047618Y-168852819D02*
X92809523Y-168852819D01*
X92809523Y-168852819D02*
X92714285Y-168805200D01*
X92714285Y-168805200D02*
X92666666Y-168709961D01*
X92666666Y-168709961D02*
X92666666Y-168614723D01*
X92666666Y-168614723D02*
X92714285Y-168519485D01*
X92714285Y-168519485D02*
X92809523Y-168471866D01*
X92809523Y-168471866D02*
X93047618Y-168471866D01*
X93047618Y-168471866D02*
X93142856Y-168424247D01*
X93476190Y-168186152D02*
X93857142Y-168186152D01*
X93619047Y-167852819D02*
X93619047Y-168709961D01*
X93619047Y-168709961D02*
X93666666Y-168805200D01*
X93666666Y-168805200D02*
X93761904Y-168852819D01*
X93761904Y-168852819D02*
X93857142Y-168852819D01*
X94904762Y-167948057D02*
X94952381Y-167900438D01*
X94952381Y-167900438D02*
X95047619Y-167852819D01*
X95047619Y-167852819D02*
X95285714Y-167852819D01*
X95285714Y-167852819D02*
X95380952Y-167900438D01*
X95380952Y-167900438D02*
X95428571Y-167948057D01*
X95428571Y-167948057D02*
X95476190Y-168043295D01*
X95476190Y-168043295D02*
X95476190Y-168138533D01*
X95476190Y-168138533D02*
X95428571Y-168281390D01*
X95428571Y-168281390D02*
X94857143Y-168852819D01*
X94857143Y-168852819D02*
X95476190Y-168852819D01*
X96095238Y-167852819D02*
X96190476Y-167852819D01*
X96190476Y-167852819D02*
X96285714Y-167900438D01*
X96285714Y-167900438D02*
X96333333Y-167948057D01*
X96333333Y-167948057D02*
X96380952Y-168043295D01*
X96380952Y-168043295D02*
X96428571Y-168233771D01*
X96428571Y-168233771D02*
X96428571Y-168471866D01*
X96428571Y-168471866D02*
X96380952Y-168662342D01*
X96380952Y-168662342D02*
X96333333Y-168757580D01*
X96333333Y-168757580D02*
X96285714Y-168805200D01*
X96285714Y-168805200D02*
X96190476Y-168852819D01*
X96190476Y-168852819D02*
X96095238Y-168852819D01*
X96095238Y-168852819D02*
X96000000Y-168805200D01*
X96000000Y-168805200D02*
X95952381Y-168757580D01*
X95952381Y-168757580D02*
X95904762Y-168662342D01*
X95904762Y-168662342D02*
X95857143Y-168471866D01*
X95857143Y-168471866D02*
X95857143Y-168233771D01*
X95857143Y-168233771D02*
X95904762Y-168043295D01*
X95904762Y-168043295D02*
X95952381Y-167948057D01*
X95952381Y-167948057D02*
X96000000Y-167900438D01*
X96000000Y-167900438D02*
X96095238Y-167852819D01*
X96761905Y-167852819D02*
X97380952Y-167852819D01*
X97380952Y-167852819D02*
X97047619Y-168233771D01*
X97047619Y-168233771D02*
X97190476Y-168233771D01*
X97190476Y-168233771D02*
X97285714Y-168281390D01*
X97285714Y-168281390D02*
X97333333Y-168329009D01*
X97333333Y-168329009D02*
X97380952Y-168424247D01*
X97380952Y-168424247D02*
X97380952Y-168662342D01*
X97380952Y-168662342D02*
X97333333Y-168757580D01*
X97333333Y-168757580D02*
X97285714Y-168805200D01*
X97285714Y-168805200D02*
X97190476Y-168852819D01*
X97190476Y-168852819D02*
X96904762Y-168852819D01*
X96904762Y-168852819D02*
X96809524Y-168805200D01*
X96809524Y-168805200D02*
X96761905Y-168757580D01*
X97761905Y-167948057D02*
X97809524Y-167900438D01*
X97809524Y-167900438D02*
X97904762Y-167852819D01*
X97904762Y-167852819D02*
X98142857Y-167852819D01*
X98142857Y-167852819D02*
X98238095Y-167900438D01*
X98238095Y-167900438D02*
X98285714Y-167948057D01*
X98285714Y-167948057D02*
X98333333Y-168043295D01*
X98333333Y-168043295D02*
X98333333Y-168138533D01*
X98333333Y-168138533D02*
X98285714Y-168281390D01*
X98285714Y-168281390D02*
X97714286Y-168852819D01*
X97714286Y-168852819D02*
X98333333Y-168852819D01*
D11*
%TO.C,SW1*%
X69380000Y-160150000D02*
X69380000Y-157950000D01*
X69850000Y-162120000D02*
X75050000Y-162120000D01*
X70450000Y-155880000D02*
X74850000Y-155880000D01*
X75620000Y-157950000D02*
X75620000Y-160150000D01*
X73914214Y-159000000D02*
G75*
G02*
X71085786Y-159000000I-1414214J0D01*
G01*
X71085786Y-159000000D02*
G75*
G02*
X73914214Y-159000000I1414214J0D01*
G01*
%TO.C,D1*%
X58545000Y-156435000D02*
X55455000Y-156435000D01*
X58544830Y-156435000D02*
G75*
G02*
X57000048Y-161985000I-1544830J-2560000D01*
G01*
X56999952Y-161985000D02*
G75*
G02*
X55455170Y-156435000I48J2990000D01*
G01*
X59500000Y-158995000D02*
G75*
G02*
X54500000Y-158995000I-2500000J0D01*
G01*
X54500000Y-158995000D02*
G75*
G02*
X59500000Y-158995000I2500000J0D01*
G01*
%TO.C,R1*%
X64580000Y-157080000D02*
X64580000Y-160920000D01*
X64580000Y-160920000D02*
X66420000Y-160920000D01*
X65500000Y-156130000D02*
X65500000Y-157080000D01*
X65500000Y-161870000D02*
X65500000Y-160920000D01*
X66420000Y-157080000D02*
X64580000Y-157080000D01*
X66420000Y-160920000D02*
X66420000Y-157080000D01*
%TO.C,BT1*%
X109310000Y-162610000D02*
X105692000Y-162610000D01*
X109310000Y-160900000D02*
X109310000Y-162610000D01*
X109310000Y-157100000D02*
X109310000Y-155390000D01*
X105692000Y-155390000D02*
X109310000Y-155390000D01*
X102847300Y-167110000D02*
X87152700Y-167110000D01*
X98860000Y-150890000D02*
X102847300Y-150890000D01*
X96660000Y-153090000D02*
X98860000Y-150890000D01*
X93340000Y-153090000D02*
X96660000Y-153090000D01*
X93340000Y-153090000D02*
X91140000Y-150890000D01*
X87152700Y-150890000D02*
X91140000Y-150890000D01*
X84308000Y-162610000D02*
X80690000Y-162610000D01*
X80690000Y-160900000D02*
X80690000Y-162610000D01*
X80690000Y-157100000D02*
X80690000Y-155390000D01*
X80690000Y-155390000D02*
X84308000Y-155390000D01*
X105692000Y-162610000D02*
G75*
G02*
X102845372Y-167111790I-10692020J3610010D01*
G01*
X102845371Y-150888211D02*
G75*
G02*
X105692000Y-155390000I-7845366J-8111785D01*
G01*
X87154629Y-167111789D02*
G75*
G02*
X84308000Y-162610000I7845371J8111789D01*
G01*
X84308000Y-155390000D02*
G75*
G02*
X87154629Y-150888211I10692020J-3610012D01*
G01*
%TD*%
M02*
