%TF.GenerationSoftware,KiCad,Pcbnew,9.0.1*%
%TF.CreationDate,2025-04-23T23:57:43-05:00*%
%TF.ProjectId,newfolder,6e657766-6f6c-4646-9572-2e6b69636164,1*%
%TF.SameCoordinates,Original*%
%TF.FileFunction,Legend,Bot*%
%TF.FilePolarity,Positive*%
%FSLAX46Y46*%
G04 Gerber Fmt 4.6, Leading zero omitted, Abs format (unit mm)*
G04 Created by KiCad (PCBNEW 9.0.1) date 2025-04-23 23:57:43*
%MOMM*%
%LPD*%
G01*
G04 APERTURE LIST*
%ADD10C,0.150000*%
%ADD11C,0.010000*%
G04 APERTURE END LIST*
D10*
X99306077Y-162369819D02*
X98972744Y-163369819D01*
X98972744Y-163369819D02*
X98639411Y-162369819D01*
X97925125Y-163322200D02*
X98020363Y-163369819D01*
X98020363Y-163369819D02*
X98210839Y-163369819D01*
X98210839Y-163369819D02*
X98306077Y-163322200D01*
X98306077Y-163322200D02*
X98353696Y-163226961D01*
X98353696Y-163226961D02*
X98353696Y-162846009D01*
X98353696Y-162846009D02*
X98306077Y-162750771D01*
X98306077Y-162750771D02*
X98210839Y-162703152D01*
X98210839Y-162703152D02*
X98020363Y-162703152D01*
X98020363Y-162703152D02*
X97925125Y-162750771D01*
X97925125Y-162750771D02*
X97877506Y-162846009D01*
X97877506Y-162846009D02*
X97877506Y-162941247D01*
X97877506Y-162941247D02*
X98353696Y-163036485D01*
X97448934Y-163369819D02*
X97448934Y-162703152D01*
X97448934Y-162893628D02*
X97401315Y-162798390D01*
X97401315Y-162798390D02*
X97353696Y-162750771D01*
X97353696Y-162750771D02*
X97258458Y-162703152D01*
X97258458Y-162703152D02*
X97163220Y-162703152D01*
X96877505Y-163322200D02*
X96782267Y-163369819D01*
X96782267Y-163369819D02*
X96591791Y-163369819D01*
X96591791Y-163369819D02*
X96496553Y-163322200D01*
X96496553Y-163322200D02*
X96448934Y-163226961D01*
X96448934Y-163226961D02*
X96448934Y-163179342D01*
X96448934Y-163179342D02*
X96496553Y-163084104D01*
X96496553Y-163084104D02*
X96591791Y-163036485D01*
X96591791Y-163036485D02*
X96734648Y-163036485D01*
X96734648Y-163036485D02*
X96829886Y-162988866D01*
X96829886Y-162988866D02*
X96877505Y-162893628D01*
X96877505Y-162893628D02*
X96877505Y-162846009D01*
X96877505Y-162846009D02*
X96829886Y-162750771D01*
X96829886Y-162750771D02*
X96734648Y-162703152D01*
X96734648Y-162703152D02*
X96591791Y-162703152D01*
X96591791Y-162703152D02*
X96496553Y-162750771D01*
X96020362Y-163369819D02*
X96020362Y-162703152D01*
X96020362Y-162369819D02*
X96067981Y-162417438D01*
X96067981Y-162417438D02*
X96020362Y-162465057D01*
X96020362Y-162465057D02*
X95972743Y-162417438D01*
X95972743Y-162417438D02*
X96020362Y-162369819D01*
X96020362Y-162369819D02*
X96020362Y-162465057D01*
X95401315Y-163369819D02*
X95496553Y-163322200D01*
X95496553Y-163322200D02*
X95544172Y-163274580D01*
X95544172Y-163274580D02*
X95591791Y-163179342D01*
X95591791Y-163179342D02*
X95591791Y-162893628D01*
X95591791Y-162893628D02*
X95544172Y-162798390D01*
X95544172Y-162798390D02*
X95496553Y-162750771D01*
X95496553Y-162750771D02*
X95401315Y-162703152D01*
X95401315Y-162703152D02*
X95258458Y-162703152D01*
X95258458Y-162703152D02*
X95163220Y-162750771D01*
X95163220Y-162750771D02*
X95115601Y-162798390D01*
X95115601Y-162798390D02*
X95067982Y-162893628D01*
X95067982Y-162893628D02*
X95067982Y-163179342D01*
X95067982Y-163179342D02*
X95115601Y-163274580D01*
X95115601Y-163274580D02*
X95163220Y-163322200D01*
X95163220Y-163322200D02*
X95258458Y-163369819D01*
X95258458Y-163369819D02*
X95401315Y-163369819D01*
X94639410Y-162703152D02*
X94639410Y-163369819D01*
X94639410Y-162798390D02*
X94591791Y-162750771D01*
X94591791Y-162750771D02*
X94496553Y-162703152D01*
X94496553Y-162703152D02*
X94353696Y-162703152D01*
X94353696Y-162703152D02*
X94258458Y-162750771D01*
X94258458Y-162750771D02*
X94210839Y-162846009D01*
X94210839Y-162846009D02*
X94210839Y-163369819D01*
X92448934Y-163369819D02*
X93020362Y-163369819D01*
X92734648Y-163369819D02*
X92734648Y-162369819D01*
X92734648Y-162369819D02*
X92829886Y-162512676D01*
X92829886Y-162512676D02*
X92925124Y-162607914D01*
X92925124Y-162607914D02*
X93020362Y-162655533D01*
X92020362Y-163274580D02*
X91972743Y-163322200D01*
X91972743Y-163322200D02*
X92020362Y-163369819D01*
X92020362Y-163369819D02*
X92067981Y-163322200D01*
X92067981Y-163322200D02*
X92020362Y-163274580D01*
X92020362Y-163274580D02*
X92020362Y-163369819D01*
X91353696Y-162369819D02*
X91258458Y-162369819D01*
X91258458Y-162369819D02*
X91163220Y-162417438D01*
X91163220Y-162417438D02*
X91115601Y-162465057D01*
X91115601Y-162465057D02*
X91067982Y-162560295D01*
X91067982Y-162560295D02*
X91020363Y-162750771D01*
X91020363Y-162750771D02*
X91020363Y-162988866D01*
X91020363Y-162988866D02*
X91067982Y-163179342D01*
X91067982Y-163179342D02*
X91115601Y-163274580D01*
X91115601Y-163274580D02*
X91163220Y-163322200D01*
X91163220Y-163322200D02*
X91258458Y-163369819D01*
X91258458Y-163369819D02*
X91353696Y-163369819D01*
X91353696Y-163369819D02*
X91448934Y-163322200D01*
X91448934Y-163322200D02*
X91496553Y-163274580D01*
X91496553Y-163274580D02*
X91544172Y-163179342D01*
X91544172Y-163179342D02*
X91591791Y-162988866D01*
X91591791Y-162988866D02*
X91591791Y-162750771D01*
X91591791Y-162750771D02*
X91544172Y-162560295D01*
X91544172Y-162560295D02*
X91496553Y-162465057D01*
X91496553Y-162465057D02*
X91448934Y-162417438D01*
X91448934Y-162417438D02*
X91353696Y-162369819D01*
D11*
%TO.C,REF\u002A\u002A*%
X91855406Y-158774949D02*
X91881127Y-158790647D01*
X91907778Y-158812227D01*
X91907778Y-159459684D01*
X91881127Y-159481264D01*
X91849767Y-159498739D01*
X91813966Y-159499575D01*
X91782528Y-159479082D01*
X91778652Y-159474416D01*
X91773186Y-159464949D01*
X91768979Y-159451267D01*
X91765867Y-159430748D01*
X91763687Y-159400768D01*
X91762276Y-159358704D01*
X91761471Y-159301932D01*
X91761107Y-159227830D01*
X91761022Y-159133773D01*
X91761022Y-158812227D01*
X91787673Y-158790647D01*
X91811386Y-158775877D01*
X91834400Y-158769067D01*
X91855406Y-158774949D01*
G36*
X91855406Y-158774949D02*
G01*
X91881127Y-158790647D01*
X91907778Y-158812227D01*
X91907778Y-159459684D01*
X91881127Y-159481264D01*
X91849767Y-159498739D01*
X91813966Y-159499575D01*
X91782528Y-159479082D01*
X91778652Y-159474416D01*
X91773186Y-159464949D01*
X91768979Y-159451267D01*
X91765867Y-159430748D01*
X91763687Y-159400768D01*
X91762276Y-159358704D01*
X91761471Y-159301932D01*
X91761107Y-159227830D01*
X91761022Y-159133773D01*
X91761022Y-158812227D01*
X91787673Y-158790647D01*
X91811386Y-158775877D01*
X91834400Y-158769067D01*
X91855406Y-158774949D01*
G37*
X98986137Y-158773463D02*
X99020291Y-158796776D01*
X99048000Y-158824485D01*
X99048000Y-159137537D01*
X99047959Y-159221567D01*
X99047701Y-159295789D01*
X99047030Y-159352541D01*
X99045752Y-159394512D01*
X99043673Y-159424389D01*
X99040599Y-159444861D01*
X99036334Y-159458614D01*
X99030684Y-159468337D01*
X99023455Y-159476717D01*
X98991991Y-159498181D01*
X98956826Y-159499947D01*
X98923822Y-159480267D01*
X98918516Y-159474398D01*
X98913066Y-159465314D01*
X98908900Y-159451973D01*
X98905846Y-159431757D01*
X98903732Y-159402049D01*
X98902386Y-159360232D01*
X98901638Y-159303689D01*
X98901314Y-159229802D01*
X98901245Y-159135956D01*
X98901284Y-159060294D01*
X98901539Y-158982385D01*
X98902183Y-158922375D01*
X98903387Y-158877648D01*
X98905324Y-158845585D01*
X98908164Y-158823571D01*
X98912079Y-158808987D01*
X98917242Y-158799218D01*
X98923822Y-158791645D01*
X98953006Y-158772623D01*
X98986137Y-158773463D01*
G36*
X98986137Y-158773463D02*
G01*
X99020291Y-158796776D01*
X99048000Y-158824485D01*
X99048000Y-159137537D01*
X99047959Y-159221567D01*
X99047701Y-159295789D01*
X99047030Y-159352541D01*
X99045752Y-159394512D01*
X99043673Y-159424389D01*
X99040599Y-159444861D01*
X99036334Y-159458614D01*
X99030684Y-159468337D01*
X99023455Y-159476717D01*
X98991991Y-159498181D01*
X98956826Y-159499947D01*
X98923822Y-159480267D01*
X98918516Y-159474398D01*
X98913066Y-159465314D01*
X98908900Y-159451973D01*
X98905846Y-159431757D01*
X98903732Y-159402049D01*
X98902386Y-159360232D01*
X98901638Y-159303689D01*
X98901314Y-159229802D01*
X98901245Y-159135956D01*
X98901284Y-159060294D01*
X98901539Y-158982385D01*
X98902183Y-158922375D01*
X98903387Y-158877648D01*
X98905324Y-158845585D01*
X98908164Y-158823571D01*
X98912079Y-158808987D01*
X98917242Y-158799218D01*
X98923822Y-158791645D01*
X98953006Y-158772623D01*
X98986137Y-158773463D01*
G37*
X98454562Y-153532850D02*
X98537313Y-153560053D01*
X98612406Y-153605484D01*
X98684298Y-153671302D01*
X98722846Y-153715567D01*
X98762256Y-153773961D01*
X98787446Y-153834586D01*
X98800861Y-153903865D01*
X98804948Y-153988222D01*
X98804669Y-154034307D01*
X98802460Y-154075450D01*
X98796894Y-154107582D01*
X98786586Y-154138122D01*
X98770148Y-154174489D01*
X98756200Y-154201728D01*
X98697665Y-154287429D01*
X98625619Y-154356617D01*
X98541947Y-154407741D01*
X98448531Y-154439250D01*
X98415434Y-154446225D01*
X98374960Y-154453094D01*
X98341999Y-154454919D01*
X98307698Y-154451947D01*
X98263200Y-154444426D01*
X98211934Y-154432002D01*
X98121434Y-154394112D01*
X98042345Y-154339836D01*
X97976528Y-154271770D01*
X97925840Y-154192511D01*
X97892140Y-154104654D01*
X97877286Y-154010795D01*
X97883136Y-153913530D01*
X97909399Y-153817220D01*
X97954418Y-153728494D01*
X98015373Y-153653419D01*
X98090184Y-153593641D01*
X98176768Y-153550809D01*
X98273043Y-153526571D01*
X98376928Y-153522576D01*
X98454562Y-153532850D01*
G36*
X98454562Y-153532850D02*
G01*
X98537313Y-153560053D01*
X98612406Y-153605484D01*
X98684298Y-153671302D01*
X98722846Y-153715567D01*
X98762256Y-153773961D01*
X98787446Y-153834586D01*
X98800861Y-153903865D01*
X98804948Y-153988222D01*
X98804669Y-154034307D01*
X98802460Y-154075450D01*
X98796894Y-154107582D01*
X98786586Y-154138122D01*
X98770148Y-154174489D01*
X98756200Y-154201728D01*
X98697665Y-154287429D01*
X98625619Y-154356617D01*
X98541947Y-154407741D01*
X98448531Y-154439250D01*
X98415434Y-154446225D01*
X98374960Y-154453094D01*
X98341999Y-154454919D01*
X98307698Y-154451947D01*
X98263200Y-154444426D01*
X98211934Y-154432002D01*
X98121434Y-154394112D01*
X98042345Y-154339836D01*
X97976528Y-154271770D01*
X97925840Y-154192511D01*
X97892140Y-154104654D01*
X97877286Y-154010795D01*
X97883136Y-153913530D01*
X97909399Y-153817220D01*
X97954418Y-153728494D01*
X98015373Y-153653419D01*
X98090184Y-153593641D01*
X98176768Y-153550809D01*
X98273043Y-153526571D01*
X98376928Y-153522576D01*
X98454562Y-153532850D01*
G37*
X91155767Y-158769068D02*
X91249890Y-158769158D01*
X91324405Y-158769498D01*
X91381811Y-158770239D01*
X91424611Y-158771535D01*
X91455304Y-158773537D01*
X91476391Y-158776396D01*
X91490373Y-158780266D01*
X91499750Y-158785298D01*
X91507022Y-158791645D01*
X91525828Y-158824362D01*
X91527275Y-158861939D01*
X91510917Y-158895178D01*
X91509557Y-158896631D01*
X91498354Y-158904992D01*
X91481252Y-158910547D01*
X91454082Y-158913840D01*
X91412678Y-158915418D01*
X91352873Y-158915822D01*
X91213511Y-158915822D01*
X91213511Y-159179589D01*
X91213436Y-159255417D01*
X91213028Y-159322083D01*
X91212046Y-159371867D01*
X91210250Y-159407784D01*
X91207399Y-159432850D01*
X91203253Y-159450081D01*
X91197571Y-159462492D01*
X91190114Y-159473100D01*
X91187824Y-159475906D01*
X91156646Y-159498548D01*
X91122266Y-159500112D01*
X91089334Y-159480267D01*
X91082355Y-159472191D01*
X91076883Y-159461593D01*
X91072863Y-159445749D01*
X91070072Y-159421773D01*
X91068288Y-159386774D01*
X91067289Y-159337864D01*
X91066852Y-159272154D01*
X91066756Y-159186756D01*
X91066756Y-158915822D01*
X90920820Y-158915822D01*
X90909720Y-158915821D01*
X90853202Y-158915596D01*
X90814358Y-158914457D01*
X90788965Y-158911657D01*
X90772804Y-158906450D01*
X90761652Y-158898089D01*
X90751289Y-158885826D01*
X90735441Y-158855138D01*
X90738543Y-158821358D01*
X90764187Y-158788822D01*
X90769129Y-158785105D01*
X90779338Y-158780269D01*
X90794764Y-158776506D01*
X90817886Y-158773683D01*
X90851183Y-158771670D01*
X90897137Y-158770333D01*
X90958228Y-158769542D01*
X91036935Y-158769163D01*
X91135740Y-158769067D01*
X91155767Y-158769068D01*
G36*
X91155767Y-158769068D02*
G01*
X91249890Y-158769158D01*
X91324405Y-158769498D01*
X91381811Y-158770239D01*
X91424611Y-158771535D01*
X91455304Y-158773537D01*
X91476391Y-158776396D01*
X91490373Y-158780266D01*
X91499750Y-158785298D01*
X91507022Y-158791645D01*
X91525828Y-158824362D01*
X91527275Y-158861939D01*
X91510917Y-158895178D01*
X91509557Y-158896631D01*
X91498354Y-158904992D01*
X91481252Y-158910547D01*
X91454082Y-158913840D01*
X91412678Y-158915418D01*
X91352873Y-158915822D01*
X91213511Y-158915822D01*
X91213511Y-159179589D01*
X91213436Y-159255417D01*
X91213028Y-159322083D01*
X91212046Y-159371867D01*
X91210250Y-159407784D01*
X91207399Y-159432850D01*
X91203253Y-159450081D01*
X91197571Y-159462492D01*
X91190114Y-159473100D01*
X91187824Y-159475906D01*
X91156646Y-159498548D01*
X91122266Y-159500112D01*
X91089334Y-159480267D01*
X91082355Y-159472191D01*
X91076883Y-159461593D01*
X91072863Y-159445749D01*
X91070072Y-159421773D01*
X91068288Y-159386774D01*
X91067289Y-159337864D01*
X91066852Y-159272154D01*
X91066756Y-159186756D01*
X91066756Y-158915822D01*
X90920820Y-158915822D01*
X90909720Y-158915821D01*
X90853202Y-158915596D01*
X90814358Y-158914457D01*
X90788965Y-158911657D01*
X90772804Y-158906450D01*
X90761652Y-158898089D01*
X90751289Y-158885826D01*
X90735441Y-158855138D01*
X90738543Y-158821358D01*
X90764187Y-158788822D01*
X90769129Y-158785105D01*
X90779338Y-158780269D01*
X90794764Y-158776506D01*
X90817886Y-158773683D01*
X90851183Y-158771670D01*
X90897137Y-158770333D01*
X90958228Y-158769542D01*
X91036935Y-158769163D01*
X91135740Y-158769067D01*
X91155767Y-158769068D01*
G37*
X90479734Y-158791645D02*
X90485366Y-158797835D01*
X90490456Y-158806041D01*
X90494543Y-158817817D01*
X90497721Y-158835276D01*
X90500087Y-158860530D01*
X90501738Y-158895690D01*
X90502769Y-158942869D01*
X90503277Y-159004177D01*
X90503359Y-159081727D01*
X90503109Y-159177631D01*
X90502625Y-159294000D01*
X90502557Y-159308175D01*
X90501971Y-159369937D01*
X90500648Y-159413620D01*
X90498103Y-159443001D01*
X90493848Y-159461855D01*
X90487396Y-159473959D01*
X90478262Y-159483089D01*
X90444804Y-159500506D01*
X90409856Y-159497604D01*
X90378953Y-159473100D01*
X90369944Y-159459897D01*
X90362492Y-159441361D01*
X90358124Y-159415333D01*
X90356069Y-159376787D01*
X90355556Y-159320700D01*
X90355556Y-159198045D01*
X89858845Y-159198045D01*
X89858845Y-159332871D01*
X89858772Y-159368662D01*
X89858009Y-159414992D01*
X89855833Y-159445526D01*
X89851536Y-159464557D01*
X89844412Y-159476374D01*
X89833755Y-159485271D01*
X89801504Y-159500341D01*
X89766217Y-159497673D01*
X89735486Y-159473100D01*
X89730831Y-159466845D01*
X89724895Y-159456321D01*
X89720364Y-159442391D01*
X89717048Y-159422317D01*
X89714759Y-159393360D01*
X89713308Y-159352780D01*
X89712505Y-159297840D01*
X89712162Y-159225799D01*
X89712089Y-159133920D01*
X89712089Y-158824485D01*
X89739798Y-158796776D01*
X89771177Y-158774533D01*
X89804406Y-158771844D01*
X89836267Y-158791645D01*
X89844553Y-158801415D01*
X89851965Y-158817307D01*
X89856302Y-158841275D01*
X89858338Y-158878148D01*
X89858845Y-158932756D01*
X89858845Y-159051289D01*
X90355556Y-159051289D01*
X90355556Y-158935776D01*
X90355994Y-158884078D01*
X90357958Y-158849554D01*
X90362474Y-158826978D01*
X90370567Y-158811126D01*
X90383265Y-158796776D01*
X90414643Y-158774533D01*
X90447872Y-158771844D01*
X90479734Y-158791645D01*
G36*
X90479734Y-158791645D02*
G01*
X90485366Y-158797835D01*
X90490456Y-158806041D01*
X90494543Y-158817817D01*
X90497721Y-158835276D01*
X90500087Y-158860530D01*
X90501738Y-158895690D01*
X90502769Y-158942869D01*
X90503277Y-159004177D01*
X90503359Y-159081727D01*
X90503109Y-159177631D01*
X90502625Y-159294000D01*
X90502557Y-159308175D01*
X90501971Y-159369937D01*
X90500648Y-159413620D01*
X90498103Y-159443001D01*
X90493848Y-159461855D01*
X90487396Y-159473959D01*
X90478262Y-159483089D01*
X90444804Y-159500506D01*
X90409856Y-159497604D01*
X90378953Y-159473100D01*
X90369944Y-159459897D01*
X90362492Y-159441361D01*
X90358124Y-159415333D01*
X90356069Y-159376787D01*
X90355556Y-159320700D01*
X90355556Y-159198045D01*
X89858845Y-159198045D01*
X89858845Y-159332871D01*
X89858772Y-159368662D01*
X89858009Y-159414992D01*
X89855833Y-159445526D01*
X89851536Y-159464557D01*
X89844412Y-159476374D01*
X89833755Y-159485271D01*
X89801504Y-159500341D01*
X89766217Y-159497673D01*
X89735486Y-159473100D01*
X89730831Y-159466845D01*
X89724895Y-159456321D01*
X89720364Y-159442391D01*
X89717048Y-159422317D01*
X89714759Y-159393360D01*
X89713308Y-159352780D01*
X89712505Y-159297840D01*
X89712162Y-159225799D01*
X89712089Y-159133920D01*
X89712089Y-158824485D01*
X89739798Y-158796776D01*
X89771177Y-158774533D01*
X89804406Y-158771844D01*
X89836267Y-158791645D01*
X89844553Y-158801415D01*
X89851965Y-158817307D01*
X89856302Y-158841275D01*
X89858338Y-158878148D01*
X89858845Y-158932756D01*
X89858845Y-159051289D01*
X90355556Y-159051289D01*
X90355556Y-158935776D01*
X90355994Y-158884078D01*
X90357958Y-158849554D01*
X90362474Y-158826978D01*
X90370567Y-158811126D01*
X90383265Y-158796776D01*
X90414643Y-158774533D01*
X90447872Y-158771844D01*
X90479734Y-158791645D01*
G37*
X95185133Y-159380396D02*
X95183163Y-159413175D01*
X95180235Y-159436095D01*
X95176158Y-159451897D01*
X95170743Y-159463319D01*
X95163803Y-159473100D01*
X95140406Y-159502845D01*
X94974714Y-159502251D01*
X94939918Y-159501953D01*
X94841435Y-159498522D01*
X94760473Y-159490839D01*
X94693379Y-159478282D01*
X94636496Y-159460227D01*
X94586169Y-159436052D01*
X94582810Y-159434135D01*
X94524998Y-159397417D01*
X94482644Y-159360451D01*
X94449828Y-159316966D01*
X94420628Y-159260689D01*
X94416346Y-159251073D01*
X94393769Y-159187887D01*
X94388034Y-159142333D01*
X94537279Y-159142333D01*
X94542892Y-159167061D01*
X94548618Y-159182939D01*
X94581548Y-159242847D01*
X94628886Y-159288600D01*
X94692652Y-159321736D01*
X94774861Y-159343790D01*
X94777655Y-159344292D01*
X94823940Y-159350255D01*
X94880336Y-159354483D01*
X94935274Y-159356089D01*
X95029156Y-159356089D01*
X95029156Y-158915822D01*
X94941667Y-158916270D01*
X94874747Y-158918746D01*
X94782349Y-158929998D01*
X94703034Y-158949537D01*
X94641060Y-158976511D01*
X94610120Y-158997240D01*
X94582000Y-159027006D01*
X94558660Y-159069434D01*
X94551533Y-159085400D01*
X94539709Y-159117902D01*
X94537279Y-159142333D01*
X94388034Y-159142333D01*
X94386797Y-159132509D01*
X94395399Y-159077483D01*
X94419541Y-159015351D01*
X94420337Y-159013658D01*
X94460788Y-158944236D01*
X94511473Y-158887638D01*
X94574198Y-158843070D01*
X94650774Y-158809741D01*
X94743009Y-158786861D01*
X94852712Y-158773636D01*
X94981691Y-158769275D01*
X94985263Y-158769270D01*
X95045283Y-158769410D01*
X95087214Y-158770446D01*
X95115328Y-158773040D01*
X95133897Y-158777853D01*
X95147194Y-158785544D01*
X95159491Y-158796776D01*
X95187200Y-158824485D01*
X95187200Y-159133920D01*
X95187175Y-159195526D01*
X95186950Y-159274311D01*
X95186332Y-159335021D01*
X95185775Y-159356089D01*
X95185133Y-159380396D01*
G36*
X95185133Y-159380396D02*
G01*
X95183163Y-159413175D01*
X95180235Y-159436095D01*
X95176158Y-159451897D01*
X95170743Y-159463319D01*
X95163803Y-159473100D01*
X95140406Y-159502845D01*
X94974714Y-159502251D01*
X94939918Y-159501953D01*
X94841435Y-159498522D01*
X94760473Y-159490839D01*
X94693379Y-159478282D01*
X94636496Y-159460227D01*
X94586169Y-159436052D01*
X94582810Y-159434135D01*
X94524998Y-159397417D01*
X94482644Y-159360451D01*
X94449828Y-159316966D01*
X94420628Y-159260689D01*
X94416346Y-159251073D01*
X94393769Y-159187887D01*
X94388034Y-159142333D01*
X94537279Y-159142333D01*
X94542892Y-159167061D01*
X94548618Y-159182939D01*
X94581548Y-159242847D01*
X94628886Y-159288600D01*
X94692652Y-159321736D01*
X94774861Y-159343790D01*
X94777655Y-159344292D01*
X94823940Y-159350255D01*
X94880336Y-159354483D01*
X94935274Y-159356089D01*
X95029156Y-159356089D01*
X95029156Y-158915822D01*
X94941667Y-158916270D01*
X94874747Y-158918746D01*
X94782349Y-158929998D01*
X94703034Y-158949537D01*
X94641060Y-158976511D01*
X94610120Y-158997240D01*
X94582000Y-159027006D01*
X94558660Y-159069434D01*
X94551533Y-159085400D01*
X94539709Y-159117902D01*
X94537279Y-159142333D01*
X94388034Y-159142333D01*
X94386797Y-159132509D01*
X94395399Y-159077483D01*
X94419541Y-159015351D01*
X94420337Y-159013658D01*
X94460788Y-158944236D01*
X94511473Y-158887638D01*
X94574198Y-158843070D01*
X94650774Y-158809741D01*
X94743009Y-158786861D01*
X94852712Y-158773636D01*
X94981691Y-158769275D01*
X94985263Y-158769270D01*
X95045283Y-158769410D01*
X95087214Y-158770446D01*
X95115328Y-158773040D01*
X95133897Y-158777853D01*
X95147194Y-158785544D01*
X95159491Y-158796776D01*
X95187200Y-158824485D01*
X95187200Y-159133920D01*
X95187175Y-159195526D01*
X95186950Y-159274311D01*
X95186332Y-159335021D01*
X95185775Y-159356089D01*
X95185133Y-159380396D01*
G37*
X102276817Y-158954427D02*
X102276870Y-159035041D01*
X102276622Y-159135956D01*
X102276583Y-159211617D01*
X102276328Y-159289526D01*
X102275684Y-159349536D01*
X102274480Y-159394264D01*
X102272543Y-159426326D01*
X102269703Y-159448340D01*
X102265788Y-159462924D01*
X102260626Y-159472694D01*
X102254045Y-159480267D01*
X102247077Y-159486501D01*
X102234079Y-159493801D01*
X102214931Y-159498554D01*
X102185528Y-159501292D01*
X102141762Y-159502545D01*
X102079528Y-159502845D01*
X102030582Y-159502469D01*
X101923722Y-159498041D01*
X101834494Y-159487953D01*
X101759696Y-159471365D01*
X101696125Y-159447435D01*
X101640579Y-159415321D01*
X101589854Y-159374182D01*
X101583866Y-159368330D01*
X101546999Y-159319821D01*
X101515899Y-159259013D01*
X101494417Y-159194769D01*
X101489136Y-159156026D01*
X101636353Y-159156026D01*
X101654635Y-159206961D01*
X101684305Y-159252878D01*
X101731002Y-159295287D01*
X101792392Y-159325090D01*
X101871538Y-159344226D01*
X101873028Y-159344464D01*
X101921999Y-159350256D01*
X101980693Y-159354396D01*
X102036734Y-159356004D01*
X102129867Y-159356089D01*
X102129867Y-158915822D01*
X102053667Y-158915808D01*
X102050639Y-158915817D01*
X101999519Y-158917782D01*
X101939416Y-158922507D01*
X101882708Y-158929035D01*
X101832750Y-158938331D01*
X101757998Y-158964600D01*
X101700489Y-159003899D01*
X101658988Y-159056933D01*
X101637771Y-159108200D01*
X101636353Y-159156026D01*
X101489136Y-159156026D01*
X101486400Y-159135956D01*
X101487679Y-159114739D01*
X101499991Y-159057323D01*
X101522520Y-158997413D01*
X101551750Y-158943363D01*
X101584167Y-158903532D01*
X101603708Y-158886510D01*
X101658420Y-158847322D01*
X101718723Y-158817193D01*
X101787919Y-158795232D01*
X101869311Y-158780550D01*
X101966200Y-158772259D01*
X102081889Y-158769467D01*
X102121371Y-158769066D01*
X102167082Y-158768653D01*
X102202883Y-158770457D01*
X102229974Y-158776739D01*
X102249556Y-158789759D01*
X102262830Y-158811778D01*
X102270998Y-158845055D01*
X102275260Y-158891851D01*
X102275857Y-158915822D01*
X102276817Y-158954427D01*
G36*
X102276817Y-158954427D02*
G01*
X102276870Y-159035041D01*
X102276622Y-159135956D01*
X102276583Y-159211617D01*
X102276328Y-159289526D01*
X102275684Y-159349536D01*
X102274480Y-159394264D01*
X102272543Y-159426326D01*
X102269703Y-159448340D01*
X102265788Y-159462924D01*
X102260626Y-159472694D01*
X102254045Y-159480267D01*
X102247077Y-159486501D01*
X102234079Y-159493801D01*
X102214931Y-159498554D01*
X102185528Y-159501292D01*
X102141762Y-159502545D01*
X102079528Y-159502845D01*
X102030582Y-159502469D01*
X101923722Y-159498041D01*
X101834494Y-159487953D01*
X101759696Y-159471365D01*
X101696125Y-159447435D01*
X101640579Y-159415321D01*
X101589854Y-159374182D01*
X101583866Y-159368330D01*
X101546999Y-159319821D01*
X101515899Y-159259013D01*
X101494417Y-159194769D01*
X101489136Y-159156026D01*
X101636353Y-159156026D01*
X101654635Y-159206961D01*
X101684305Y-159252878D01*
X101731002Y-159295287D01*
X101792392Y-159325090D01*
X101871538Y-159344226D01*
X101873028Y-159344464D01*
X101921999Y-159350256D01*
X101980693Y-159354396D01*
X102036734Y-159356004D01*
X102129867Y-159356089D01*
X102129867Y-158915822D01*
X102053667Y-158915808D01*
X102050639Y-158915817D01*
X101999519Y-158917782D01*
X101939416Y-158922507D01*
X101882708Y-158929035D01*
X101832750Y-158938331D01*
X101757998Y-158964600D01*
X101700489Y-159003899D01*
X101658988Y-159056933D01*
X101637771Y-159108200D01*
X101636353Y-159156026D01*
X101489136Y-159156026D01*
X101486400Y-159135956D01*
X101487679Y-159114739D01*
X101499991Y-159057323D01*
X101522520Y-158997413D01*
X101551750Y-158943363D01*
X101584167Y-158903532D01*
X101603708Y-158886510D01*
X101658420Y-158847322D01*
X101718723Y-158817193D01*
X101787919Y-158795232D01*
X101869311Y-158780550D01*
X101966200Y-158772259D01*
X102081889Y-158769467D01*
X102121371Y-158769066D01*
X102167082Y-158768653D01*
X102202883Y-158770457D01*
X102229974Y-158776739D01*
X102249556Y-158789759D01*
X102262830Y-158811778D01*
X102270998Y-158845055D01*
X102275260Y-158891851D01*
X102275857Y-158915822D01*
X102276817Y-158954427D01*
G37*
X97331893Y-158767892D02*
X97343301Y-158774029D01*
X97353850Y-158784691D01*
X97365136Y-158798811D01*
X97369589Y-158804772D01*
X97375588Y-158815268D01*
X97380167Y-158829093D01*
X97383519Y-158848998D01*
X97385833Y-158877732D01*
X97387301Y-158918045D01*
X97388113Y-158972687D01*
X97388460Y-159044407D01*
X97388534Y-159135956D01*
X97388511Y-159194486D01*
X97388292Y-159273573D01*
X97387683Y-159334516D01*
X97386492Y-159380062D01*
X97384529Y-159412963D01*
X97381603Y-159435968D01*
X97377523Y-159451826D01*
X97372097Y-159463286D01*
X97365136Y-159473100D01*
X97334708Y-159497493D01*
X97299765Y-159500372D01*
X97262784Y-159481282D01*
X97258600Y-159477807D01*
X97250424Y-159469279D01*
X97244364Y-159457728D01*
X97239981Y-159439896D01*
X97236839Y-159412524D01*
X97234502Y-159372354D01*
X97232531Y-159316128D01*
X97230489Y-159240589D01*
X97224845Y-159021458D01*
X96959556Y-159262099D01*
X96885722Y-159328875D01*
X96820542Y-159386991D01*
X96768348Y-159431949D01*
X96727273Y-159464871D01*
X96695455Y-159486879D01*
X96671026Y-159499094D01*
X96652124Y-159502639D01*
X96636883Y-159498636D01*
X96623439Y-159488207D01*
X96609927Y-159472474D01*
X96603682Y-159463991D01*
X96598050Y-159453413D01*
X96593839Y-159439255D01*
X96590887Y-159418803D01*
X96589032Y-159389342D01*
X96588113Y-159348161D01*
X96587968Y-159292544D01*
X96588435Y-159219779D01*
X96589352Y-159127151D01*
X96592667Y-158812199D01*
X96619318Y-158790633D01*
X96645383Y-158774441D01*
X96678241Y-158771670D01*
X96712772Y-158790623D01*
X96717084Y-158794208D01*
X96725216Y-158802737D01*
X96731245Y-158814329D01*
X96735606Y-158832235D01*
X96738734Y-158859706D01*
X96741063Y-158899994D01*
X96743029Y-158956351D01*
X96745067Y-159032029D01*
X96750711Y-159251878D01*
X96931334Y-159088084D01*
X97018072Y-159009451D01*
X97093843Y-158941058D01*
X97155980Y-158885708D01*
X97206078Y-158842338D01*
X97245735Y-158809881D01*
X97276548Y-158787273D01*
X97300114Y-158773448D01*
X97318030Y-158767343D01*
X97331893Y-158767892D01*
G36*
X97331893Y-158767892D02*
G01*
X97343301Y-158774029D01*
X97353850Y-158784691D01*
X97365136Y-158798811D01*
X97369589Y-158804772D01*
X97375588Y-158815268D01*
X97380167Y-158829093D01*
X97383519Y-158848998D01*
X97385833Y-158877732D01*
X97387301Y-158918045D01*
X97388113Y-158972687D01*
X97388460Y-159044407D01*
X97388534Y-159135956D01*
X97388511Y-159194486D01*
X97388292Y-159273573D01*
X97387683Y-159334516D01*
X97386492Y-159380062D01*
X97384529Y-159412963D01*
X97381603Y-159435968D01*
X97377523Y-159451826D01*
X97372097Y-159463286D01*
X97365136Y-159473100D01*
X97334708Y-159497493D01*
X97299765Y-159500372D01*
X97262784Y-159481282D01*
X97258600Y-159477807D01*
X97250424Y-159469279D01*
X97244364Y-159457728D01*
X97239981Y-159439896D01*
X97236839Y-159412524D01*
X97234502Y-159372354D01*
X97232531Y-159316128D01*
X97230489Y-159240589D01*
X97224845Y-159021458D01*
X96959556Y-159262099D01*
X96885722Y-159328875D01*
X96820542Y-159386991D01*
X96768348Y-159431949D01*
X96727273Y-159464871D01*
X96695455Y-159486879D01*
X96671026Y-159499094D01*
X96652124Y-159502639D01*
X96636883Y-159498636D01*
X96623439Y-159488207D01*
X96609927Y-159472474D01*
X96603682Y-159463991D01*
X96598050Y-159453413D01*
X96593839Y-159439255D01*
X96590887Y-159418803D01*
X96589032Y-159389342D01*
X96588113Y-159348161D01*
X96587968Y-159292544D01*
X96588435Y-159219779D01*
X96589352Y-159127151D01*
X96592667Y-158812199D01*
X96619318Y-158790633D01*
X96645383Y-158774441D01*
X96678241Y-158771670D01*
X96712772Y-158790623D01*
X96717084Y-158794208D01*
X96725216Y-158802737D01*
X96731245Y-158814329D01*
X96735606Y-158832235D01*
X96738734Y-158859706D01*
X96741063Y-158899994D01*
X96743029Y-158956351D01*
X96745067Y-159032029D01*
X96750711Y-159251878D01*
X96931334Y-159088084D01*
X97018072Y-159009451D01*
X97093843Y-158941058D01*
X97155980Y-158885708D01*
X97206078Y-158842338D01*
X97245735Y-158809881D01*
X97276548Y-158787273D01*
X97300114Y-158773448D01*
X97318030Y-158767343D01*
X97331893Y-158767892D01*
G37*
X98129150Y-158774179D02*
X98235157Y-158790494D01*
X98328969Y-158818545D01*
X98407765Y-158857452D01*
X98468719Y-158906334D01*
X98494789Y-158939195D01*
X98524297Y-158988394D01*
X98549568Y-159042252D01*
X98567218Y-159093419D01*
X98573858Y-159134544D01*
X98572298Y-159154259D01*
X98559357Y-159205592D01*
X98536194Y-159262118D01*
X98506302Y-159316035D01*
X98473173Y-159359539D01*
X98462977Y-159369887D01*
X98395892Y-159421662D01*
X98315766Y-159461554D01*
X98229556Y-159485956D01*
X98174592Y-159494068D01*
X98081139Y-159500673D01*
X97991358Y-159498586D01*
X97908869Y-159488340D01*
X97837286Y-159470470D01*
X97780228Y-159445508D01*
X97741311Y-159413988D01*
X97739936Y-159412012D01*
X97732848Y-159386786D01*
X97728609Y-159339535D01*
X97727200Y-159270071D01*
X97728060Y-159207838D01*
X97732780Y-159160456D01*
X97744470Y-159128353D01*
X97766239Y-159108800D01*
X97801198Y-159099070D01*
X97852456Y-159096433D01*
X97923123Y-159098161D01*
X97971743Y-159101173D01*
X98021939Y-159109366D01*
X98054433Y-159123419D01*
X98071892Y-159144654D01*
X98076983Y-159174394D01*
X98076877Y-159178936D01*
X98068175Y-159213730D01*
X98044165Y-159237147D01*
X98002900Y-159250347D01*
X97942431Y-159254489D01*
X97873956Y-159254489D01*
X97873956Y-159292841D01*
X97874006Y-159301976D01*
X97876227Y-159319227D01*
X97885494Y-159329521D01*
X97906875Y-159336459D01*
X97945436Y-159343641D01*
X97950910Y-159344575D01*
X98047860Y-159354478D01*
X98137852Y-159351559D01*
X98218760Y-159336829D01*
X98288459Y-159311299D01*
X98344824Y-159275978D01*
X98385729Y-159231879D01*
X98409051Y-159180012D01*
X98412663Y-159121388D01*
X98407145Y-159092494D01*
X98380461Y-159036604D01*
X98334273Y-158990945D01*
X98269291Y-158956108D01*
X98186229Y-158932690D01*
X98161555Y-158928241D01*
X98072226Y-158917742D01*
X97992419Y-158918971D01*
X97914326Y-158931906D01*
X97879183Y-158938696D01*
X97833745Y-158939713D01*
X97802430Y-158927182D01*
X97782277Y-158900395D01*
X97775893Y-158872148D01*
X97785379Y-158840924D01*
X97794708Y-158827499D01*
X97828943Y-158803967D01*
X97881565Y-158786095D01*
X97950081Y-158774599D01*
X98032000Y-158770192D01*
X98129150Y-158774179D01*
G36*
X98129150Y-158774179D02*
G01*
X98235157Y-158790494D01*
X98328969Y-158818545D01*
X98407765Y-158857452D01*
X98468719Y-158906334D01*
X98494789Y-158939195D01*
X98524297Y-158988394D01*
X98549568Y-159042252D01*
X98567218Y-159093419D01*
X98573858Y-159134544D01*
X98572298Y-159154259D01*
X98559357Y-159205592D01*
X98536194Y-159262118D01*
X98506302Y-159316035D01*
X98473173Y-159359539D01*
X98462977Y-159369887D01*
X98395892Y-159421662D01*
X98315766Y-159461554D01*
X98229556Y-159485956D01*
X98174592Y-159494068D01*
X98081139Y-159500673D01*
X97991358Y-159498586D01*
X97908869Y-159488340D01*
X97837286Y-159470470D01*
X97780228Y-159445508D01*
X97741311Y-159413988D01*
X97739936Y-159412012D01*
X97732848Y-159386786D01*
X97728609Y-159339535D01*
X97727200Y-159270071D01*
X97728060Y-159207838D01*
X97732780Y-159160456D01*
X97744470Y-159128353D01*
X97766239Y-159108800D01*
X97801198Y-159099070D01*
X97852456Y-159096433D01*
X97923123Y-159098161D01*
X97971743Y-159101173D01*
X98021939Y-159109366D01*
X98054433Y-159123419D01*
X98071892Y-159144654D01*
X98076983Y-159174394D01*
X98076877Y-159178936D01*
X98068175Y-159213730D01*
X98044165Y-159237147D01*
X98002900Y-159250347D01*
X97942431Y-159254489D01*
X97873956Y-159254489D01*
X97873956Y-159292841D01*
X97874006Y-159301976D01*
X97876227Y-159319227D01*
X97885494Y-159329521D01*
X97906875Y-159336459D01*
X97945436Y-159343641D01*
X97950910Y-159344575D01*
X98047860Y-159354478D01*
X98137852Y-159351559D01*
X98218760Y-159336829D01*
X98288459Y-159311299D01*
X98344824Y-159275978D01*
X98385729Y-159231879D01*
X98409051Y-159180012D01*
X98412663Y-159121388D01*
X98407145Y-159092494D01*
X98380461Y-159036604D01*
X98334273Y-158990945D01*
X98269291Y-158956108D01*
X98186229Y-158932690D01*
X98161555Y-158928241D01*
X98072226Y-158917742D01*
X97992419Y-158918971D01*
X97914326Y-158931906D01*
X97879183Y-158938696D01*
X97833745Y-158939713D01*
X97802430Y-158927182D01*
X97782277Y-158900395D01*
X97775893Y-158872148D01*
X97785379Y-158840924D01*
X97794708Y-158827499D01*
X97828943Y-158803967D01*
X97881565Y-158786095D01*
X97950081Y-158774599D01*
X98032000Y-158770192D01*
X98129150Y-158774179D01*
G37*
X96179803Y-158798811D02*
X96184752Y-158805495D01*
X96190596Y-158816066D01*
X96195057Y-158830153D01*
X96198321Y-158850478D01*
X96200574Y-158879765D01*
X96202002Y-158920737D01*
X96202792Y-158976117D01*
X96203129Y-159048628D01*
X96203200Y-159140994D01*
X96203171Y-159206911D01*
X96202939Y-159285228D01*
X96202319Y-159345496D01*
X96201126Y-159390393D01*
X96199179Y-159422602D01*
X96196294Y-159444800D01*
X96192288Y-159459669D01*
X96186979Y-159469889D01*
X96180183Y-159478138D01*
X96175668Y-159482795D01*
X96167438Y-159489282D01*
X96156078Y-159494194D01*
X96138810Y-159497749D01*
X96112855Y-159500167D01*
X96075436Y-159501667D01*
X96023773Y-159502467D01*
X95955089Y-159502787D01*
X95866606Y-159502845D01*
X95846931Y-159502838D01*
X95759906Y-159502572D01*
X95692254Y-159501806D01*
X95641299Y-159500392D01*
X95604367Y-159498180D01*
X95578783Y-159495022D01*
X95561871Y-159490769D01*
X95550957Y-159485271D01*
X95540464Y-159475285D01*
X95527203Y-159444168D01*
X95528386Y-159408280D01*
X95544550Y-159376733D01*
X95546739Y-159374457D01*
X95555427Y-159368189D01*
X95568769Y-159363523D01*
X95589752Y-159360227D01*
X95621363Y-159358068D01*
X95666590Y-159356814D01*
X95728420Y-159356231D01*
X95809839Y-159356089D01*
X96056445Y-159356089D01*
X96056445Y-159198045D01*
X95894006Y-159198045D01*
X95858338Y-159197964D01*
X95802568Y-159197167D01*
X95763430Y-159195162D01*
X95736976Y-159191521D01*
X95719259Y-159185812D01*
X95706329Y-159177607D01*
X95702686Y-159174423D01*
X95684278Y-159143448D01*
X95683644Y-159107112D01*
X95701183Y-159073493D01*
X95701245Y-159073424D01*
X95710916Y-159064798D01*
X95724209Y-159058742D01*
X95744917Y-159054811D01*
X95776828Y-159052556D01*
X95823734Y-159051531D01*
X95889424Y-159051289D01*
X96057571Y-159051289D01*
X96054186Y-158986378D01*
X96050800Y-158921467D01*
X95808723Y-158918414D01*
X95783707Y-158918086D01*
X95702087Y-158916606D01*
X95639768Y-158914222D01*
X95594154Y-158910227D01*
X95562652Y-158903913D01*
X95542667Y-158894574D01*
X95531604Y-158881503D01*
X95526869Y-158863992D01*
X95525867Y-158841335D01*
X95525873Y-158838970D01*
X95527027Y-158818939D01*
X95531824Y-158803146D01*
X95542632Y-158791090D01*
X95561817Y-158782267D01*
X95591745Y-158776175D01*
X95634783Y-158772311D01*
X95693299Y-158770174D01*
X95769657Y-158769260D01*
X95866226Y-158769067D01*
X96156406Y-158769067D01*
X96179803Y-158798811D01*
G36*
X96179803Y-158798811D02*
G01*
X96184752Y-158805495D01*
X96190596Y-158816066D01*
X96195057Y-158830153D01*
X96198321Y-158850478D01*
X96200574Y-158879765D01*
X96202002Y-158920737D01*
X96202792Y-158976117D01*
X96203129Y-159048628D01*
X96203200Y-159140994D01*
X96203171Y-159206911D01*
X96202939Y-159285228D01*
X96202319Y-159345496D01*
X96201126Y-159390393D01*
X96199179Y-159422602D01*
X96196294Y-159444800D01*
X96192288Y-159459669D01*
X96186979Y-159469889D01*
X96180183Y-159478138D01*
X96175668Y-159482795D01*
X96167438Y-159489282D01*
X96156078Y-159494194D01*
X96138810Y-159497749D01*
X96112855Y-159500167D01*
X96075436Y-159501667D01*
X96023773Y-159502467D01*
X95955089Y-159502787D01*
X95866606Y-159502845D01*
X95846931Y-159502838D01*
X95759906Y-159502572D01*
X95692254Y-159501806D01*
X95641299Y-159500392D01*
X95604367Y-159498180D01*
X95578783Y-159495022D01*
X95561871Y-159490769D01*
X95550957Y-159485271D01*
X95540464Y-159475285D01*
X95527203Y-159444168D01*
X95528386Y-159408280D01*
X95544550Y-159376733D01*
X95546739Y-159374457D01*
X95555427Y-159368189D01*
X95568769Y-159363523D01*
X95589752Y-159360227D01*
X95621363Y-159358068D01*
X95666590Y-159356814D01*
X95728420Y-159356231D01*
X95809839Y-159356089D01*
X96056445Y-159356089D01*
X96056445Y-159198045D01*
X95894006Y-159198045D01*
X95858338Y-159197964D01*
X95802568Y-159197167D01*
X95763430Y-159195162D01*
X95736976Y-159191521D01*
X95719259Y-159185812D01*
X95706329Y-159177607D01*
X95702686Y-159174423D01*
X95684278Y-159143448D01*
X95683644Y-159107112D01*
X95701183Y-159073493D01*
X95701245Y-159073424D01*
X95710916Y-159064798D01*
X95724209Y-159058742D01*
X95744917Y-159054811D01*
X95776828Y-159052556D01*
X95823734Y-159051531D01*
X95889424Y-159051289D01*
X96057571Y-159051289D01*
X96054186Y-158986378D01*
X96050800Y-158921467D01*
X95808723Y-158918414D01*
X95783707Y-158918086D01*
X95702087Y-158916606D01*
X95639768Y-158914222D01*
X95594154Y-158910227D01*
X95562652Y-158903913D01*
X95542667Y-158894574D01*
X95531604Y-158881503D01*
X95526869Y-158863992D01*
X95525867Y-158841335D01*
X95525873Y-158838970D01*
X95527027Y-158818939D01*
X95531824Y-158803146D01*
X95542632Y-158791090D01*
X95561817Y-158782267D01*
X95591745Y-158776175D01*
X95634783Y-158772311D01*
X95693299Y-158770174D01*
X95769657Y-158769260D01*
X95866226Y-158769067D01*
X96156406Y-158769067D01*
X96179803Y-158798811D01*
G37*
X100856734Y-158769083D02*
X100933831Y-158769275D01*
X100992777Y-158769860D01*
X101036364Y-158771051D01*
X101067383Y-158773064D01*
X101088625Y-158776112D01*
X101102882Y-158780409D01*
X101112945Y-158786172D01*
X101121606Y-158793612D01*
X101123391Y-158795293D01*
X101130635Y-158802832D01*
X101136277Y-158811850D01*
X101140517Y-158824984D01*
X101143556Y-158844872D01*
X101145594Y-158874151D01*
X101146830Y-158915458D01*
X101147465Y-158971431D01*
X101147700Y-159044707D01*
X101147734Y-159137923D01*
X101147697Y-159210713D01*
X101147448Y-159288889D01*
X101146812Y-159349103D01*
X101145615Y-159393982D01*
X101143684Y-159426152D01*
X101140846Y-159448239D01*
X101136927Y-159462870D01*
X101131755Y-159472670D01*
X101125156Y-159480267D01*
X101121822Y-159483444D01*
X101113300Y-159489554D01*
X101101298Y-159494229D01*
X101083087Y-159497659D01*
X101055940Y-159500036D01*
X101017129Y-159501552D01*
X100963924Y-159502398D01*
X100893598Y-159502765D01*
X100803422Y-159502845D01*
X100761314Y-159502833D01*
X100680167Y-159502651D01*
X100617675Y-159502098D01*
X100571109Y-159500982D01*
X100537741Y-159499113D01*
X100514844Y-159496298D01*
X100499688Y-159492346D01*
X100489546Y-159487066D01*
X100481689Y-159480267D01*
X100466963Y-159458667D01*
X100459111Y-159429467D01*
X100464610Y-159405560D01*
X100481689Y-159378667D01*
X100486668Y-159374059D01*
X100496443Y-159367772D01*
X100510559Y-159363146D01*
X100532054Y-159359930D01*
X100563968Y-159357870D01*
X100609342Y-159356712D01*
X100671213Y-159356202D01*
X100752622Y-159356089D01*
X101000978Y-159356089D01*
X101000978Y-159198045D01*
X100839801Y-159198045D01*
X100803983Y-159197899D01*
X100738359Y-159196176D01*
X100691118Y-159191741D01*
X100659383Y-159183637D01*
X100640277Y-159170906D01*
X100630923Y-159152592D01*
X100628445Y-159127738D01*
X100629242Y-159107482D01*
X100634494Y-159085656D01*
X100647288Y-159070304D01*
X100670628Y-159060309D01*
X100707517Y-159054553D01*
X100760959Y-159051919D01*
X100833958Y-159051289D01*
X101002105Y-159051289D01*
X100998719Y-158986378D01*
X100995334Y-158921467D01*
X100747617Y-158918418D01*
X100685026Y-158917539D01*
X100616565Y-158916095D01*
X100565661Y-158914164D01*
X100529408Y-158911514D01*
X100504901Y-158907910D01*
X100489235Y-158903121D01*
X100479506Y-158896913D01*
X100473491Y-158890510D01*
X100460482Y-158858828D01*
X100464043Y-158823142D01*
X100483818Y-158792084D01*
X100487069Y-158789161D01*
X100496049Y-158782810D01*
X100508153Y-158777957D01*
X100526159Y-158774403D01*
X100552847Y-158771946D01*
X100590997Y-158770385D01*
X100643386Y-158769518D01*
X100712794Y-158769146D01*
X100802001Y-158769067D01*
X100856734Y-158769083D01*
G36*
X100856734Y-158769083D02*
G01*
X100933831Y-158769275D01*
X100992777Y-158769860D01*
X101036364Y-158771051D01*
X101067383Y-158773064D01*
X101088625Y-158776112D01*
X101102882Y-158780409D01*
X101112945Y-158786172D01*
X101121606Y-158793612D01*
X101123391Y-158795293D01*
X101130635Y-158802832D01*
X101136277Y-158811850D01*
X101140517Y-158824984D01*
X101143556Y-158844872D01*
X101145594Y-158874151D01*
X101146830Y-158915458D01*
X101147465Y-158971431D01*
X101147700Y-159044707D01*
X101147734Y-159137923D01*
X101147697Y-159210713D01*
X101147448Y-159288889D01*
X101146812Y-159349103D01*
X101145615Y-159393982D01*
X101143684Y-159426152D01*
X101140846Y-159448239D01*
X101136927Y-159462870D01*
X101131755Y-159472670D01*
X101125156Y-159480267D01*
X101121822Y-159483444D01*
X101113300Y-159489554D01*
X101101298Y-159494229D01*
X101083087Y-159497659D01*
X101055940Y-159500036D01*
X101017129Y-159501552D01*
X100963924Y-159502398D01*
X100893598Y-159502765D01*
X100803422Y-159502845D01*
X100761314Y-159502833D01*
X100680167Y-159502651D01*
X100617675Y-159502098D01*
X100571109Y-159500982D01*
X100537741Y-159499113D01*
X100514844Y-159496298D01*
X100499688Y-159492346D01*
X100489546Y-159487066D01*
X100481689Y-159480267D01*
X100466963Y-159458667D01*
X100459111Y-159429467D01*
X100464610Y-159405560D01*
X100481689Y-159378667D01*
X100486668Y-159374059D01*
X100496443Y-159367772D01*
X100510559Y-159363146D01*
X100532054Y-159359930D01*
X100563968Y-159357870D01*
X100609342Y-159356712D01*
X100671213Y-159356202D01*
X100752622Y-159356089D01*
X101000978Y-159356089D01*
X101000978Y-159198045D01*
X100839801Y-159198045D01*
X100803983Y-159197899D01*
X100738359Y-159196176D01*
X100691118Y-159191741D01*
X100659383Y-159183637D01*
X100640277Y-159170906D01*
X100630923Y-159152592D01*
X100628445Y-159127738D01*
X100629242Y-159107482D01*
X100634494Y-159085656D01*
X100647288Y-159070304D01*
X100670628Y-159060309D01*
X100707517Y-159054553D01*
X100760959Y-159051919D01*
X100833958Y-159051289D01*
X101002105Y-159051289D01*
X100998719Y-158986378D01*
X100995334Y-158921467D01*
X100747617Y-158918418D01*
X100685026Y-158917539D01*
X100616565Y-158916095D01*
X100565661Y-158914164D01*
X100529408Y-158911514D01*
X100504901Y-158907910D01*
X100489235Y-158903121D01*
X100479506Y-158896913D01*
X100473491Y-158890510D01*
X100460482Y-158858828D01*
X100464043Y-158823142D01*
X100483818Y-158792084D01*
X100487069Y-158789161D01*
X100496049Y-158782810D01*
X100508153Y-158777957D01*
X100526159Y-158774403D01*
X100552847Y-158771946D01*
X100590997Y-158770385D01*
X100643386Y-158769518D01*
X100712794Y-158769146D01*
X100802001Y-158769067D01*
X100856734Y-158769083D01*
G37*
X92289702Y-158778478D02*
X92307663Y-158796989D01*
X92328263Y-158828071D01*
X92353095Y-158873756D01*
X92383750Y-158936078D01*
X92421820Y-159017071D01*
X92436454Y-159048454D01*
X92466203Y-159111638D01*
X92492297Y-159166244D01*
X92513292Y-159209290D01*
X92527739Y-159237793D01*
X92534191Y-159248770D01*
X92535550Y-159248189D01*
X92545542Y-159234242D01*
X92562833Y-159204704D01*
X92585430Y-159163087D01*
X92611338Y-159112903D01*
X92627311Y-159081414D01*
X92656261Y-159026061D01*
X92678749Y-158987044D01*
X92696965Y-158961566D01*
X92713096Y-158946831D01*
X92729330Y-158940042D01*
X92747857Y-158938400D01*
X92758360Y-158938875D01*
X92774476Y-158943082D01*
X92789790Y-158953946D01*
X92806388Y-158974219D01*
X92826357Y-159006654D01*
X92851783Y-159054004D01*
X92884752Y-159119022D01*
X92894485Y-159138277D01*
X92918943Y-159184946D01*
X92939178Y-159221109D01*
X92953311Y-159243497D01*
X92959460Y-159248845D01*
X92960827Y-159245573D01*
X92970202Y-159224664D01*
X92987062Y-159187725D01*
X93009979Y-159137874D01*
X93037520Y-159078226D01*
X93068255Y-159011898D01*
X93094970Y-158954677D01*
X93124593Y-158892688D01*
X93147664Y-158846949D01*
X93165643Y-158814908D01*
X93179990Y-158794014D01*
X93192166Y-158781718D01*
X93203632Y-158775466D01*
X93213042Y-158772574D01*
X93238147Y-158772425D01*
X93265290Y-158787768D01*
X93266590Y-158788753D01*
X93288674Y-158811388D01*
X93299723Y-158833613D01*
X93299769Y-158834253D01*
X93295228Y-158851915D01*
X93282364Y-158886481D01*
X93262605Y-158934826D01*
X93237381Y-158993825D01*
X93208119Y-159060355D01*
X93176250Y-159131291D01*
X93143201Y-159203507D01*
X93110401Y-159273880D01*
X93079280Y-159339285D01*
X93051265Y-159396597D01*
X93027786Y-159442692D01*
X93010272Y-159474446D01*
X93000151Y-159488733D01*
X92965743Y-159502102D01*
X92924046Y-159495741D01*
X92918681Y-159491044D01*
X92902852Y-159468893D01*
X92880650Y-159432132D01*
X92854233Y-159384415D01*
X92825760Y-159329393D01*
X92745986Y-159170150D01*
X92672799Y-159316742D01*
X92663103Y-159336032D01*
X92636125Y-159388380D01*
X92612096Y-159433170D01*
X92593332Y-159466154D01*
X92582146Y-159483089D01*
X92581000Y-159484332D01*
X92552879Y-159499619D01*
X92517817Y-159501302D01*
X92486776Y-159488733D01*
X92484350Y-159485884D01*
X92472090Y-159465259D01*
X92452352Y-159427708D01*
X92426448Y-159375880D01*
X92395685Y-159312423D01*
X92361375Y-159239985D01*
X92324825Y-159161216D01*
X92304585Y-159117093D01*
X92267812Y-159036365D01*
X92239355Y-158972687D01*
X92218331Y-158923752D01*
X92203854Y-158887257D01*
X92195039Y-158860895D01*
X92191004Y-158842361D01*
X92190862Y-158829352D01*
X92193730Y-158819561D01*
X92208387Y-158798678D01*
X92234990Y-158778377D01*
X92235745Y-158778035D01*
X92255335Y-158771034D01*
X92272790Y-158770504D01*
X92289702Y-158778478D01*
G36*
X92289702Y-158778478D02*
G01*
X92307663Y-158796989D01*
X92328263Y-158828071D01*
X92353095Y-158873756D01*
X92383750Y-158936078D01*
X92421820Y-159017071D01*
X92436454Y-159048454D01*
X92466203Y-159111638D01*
X92492297Y-159166244D01*
X92513292Y-159209290D01*
X92527739Y-159237793D01*
X92534191Y-159248770D01*
X92535550Y-159248189D01*
X92545542Y-159234242D01*
X92562833Y-159204704D01*
X92585430Y-159163087D01*
X92611338Y-159112903D01*
X92627311Y-159081414D01*
X92656261Y-159026061D01*
X92678749Y-158987044D01*
X92696965Y-158961566D01*
X92713096Y-158946831D01*
X92729330Y-158940042D01*
X92747857Y-158938400D01*
X92758360Y-158938875D01*
X92774476Y-158943082D01*
X92789790Y-158953946D01*
X92806388Y-158974219D01*
X92826357Y-159006654D01*
X92851783Y-159054004D01*
X92884752Y-159119022D01*
X92894485Y-159138277D01*
X92918943Y-159184946D01*
X92939178Y-159221109D01*
X92953311Y-159243497D01*
X92959460Y-159248845D01*
X92960827Y-159245573D01*
X92970202Y-159224664D01*
X92987062Y-159187725D01*
X93009979Y-159137874D01*
X93037520Y-159078226D01*
X93068255Y-159011898D01*
X93094970Y-158954677D01*
X93124593Y-158892688D01*
X93147664Y-158846949D01*
X93165643Y-158814908D01*
X93179990Y-158794014D01*
X93192166Y-158781718D01*
X93203632Y-158775466D01*
X93213042Y-158772574D01*
X93238147Y-158772425D01*
X93265290Y-158787768D01*
X93266590Y-158788753D01*
X93288674Y-158811388D01*
X93299723Y-158833613D01*
X93299769Y-158834253D01*
X93295228Y-158851915D01*
X93282364Y-158886481D01*
X93262605Y-158934826D01*
X93237381Y-158993825D01*
X93208119Y-159060355D01*
X93176250Y-159131291D01*
X93143201Y-159203507D01*
X93110401Y-159273880D01*
X93079280Y-159339285D01*
X93051265Y-159396597D01*
X93027786Y-159442692D01*
X93010272Y-159474446D01*
X93000151Y-159488733D01*
X92965743Y-159502102D01*
X92924046Y-159495741D01*
X92918681Y-159491044D01*
X92902852Y-159468893D01*
X92880650Y-159432132D01*
X92854233Y-159384415D01*
X92825760Y-159329393D01*
X92745986Y-159170150D01*
X92672799Y-159316742D01*
X92663103Y-159336032D01*
X92636125Y-159388380D01*
X92612096Y-159433170D01*
X92593332Y-159466154D01*
X92582146Y-159483089D01*
X92581000Y-159484332D01*
X92552879Y-159499619D01*
X92517817Y-159501302D01*
X92486776Y-159488733D01*
X92484350Y-159485884D01*
X92472090Y-159465259D01*
X92452352Y-159427708D01*
X92426448Y-159375880D01*
X92395685Y-159312423D01*
X92361375Y-159239985D01*
X92324825Y-159161216D01*
X92304585Y-159117093D01*
X92267812Y-159036365D01*
X92239355Y-158972687D01*
X92218331Y-158923752D01*
X92203854Y-158887257D01*
X92195039Y-158860895D01*
X92191004Y-158842361D01*
X92190862Y-158829352D01*
X92193730Y-158819561D01*
X92208387Y-158798678D01*
X92234990Y-158778377D01*
X92235745Y-158778035D01*
X92255335Y-158771034D01*
X92272790Y-158770504D01*
X92289702Y-158778478D01*
G37*
X99840853Y-158769936D02*
X99907100Y-158775366D01*
X99962400Y-158784964D01*
X100013283Y-158799825D01*
X100084595Y-158832958D01*
X100135752Y-158875640D01*
X100166575Y-158927705D01*
X100176889Y-158988983D01*
X100175952Y-159020232D01*
X100170160Y-159045029D01*
X100155353Y-159066699D01*
X100127380Y-159094049D01*
X100119402Y-159101378D01*
X100095692Y-159122281D01*
X100073298Y-159139251D01*
X100049265Y-159153205D01*
X100020637Y-159165056D01*
X99984460Y-159175720D01*
X99937780Y-159186111D01*
X99877641Y-159197146D01*
X99801090Y-159209738D01*
X99705171Y-159224804D01*
X99686808Y-159227838D01*
X99624478Y-159241458D01*
X99579260Y-159257192D01*
X99552976Y-159274263D01*
X99547447Y-159291897D01*
X99550068Y-159296168D01*
X99568000Y-159311233D01*
X99596126Y-159327867D01*
X99608926Y-159333857D01*
X99630224Y-159341050D01*
X99656610Y-159345827D01*
X99692454Y-159348646D01*
X99742128Y-159349964D01*
X99810000Y-159350237D01*
X99827785Y-159350164D01*
X99895406Y-159349053D01*
X99960345Y-159346828D01*
X100015970Y-159343762D01*
X100055651Y-159340127D01*
X100091162Y-159336059D01*
X100120415Y-159335276D01*
X100139315Y-159339876D01*
X100154429Y-159350551D01*
X100158085Y-159354144D01*
X100174427Y-159385918D01*
X100173107Y-159421572D01*
X100154150Y-159452190D01*
X100133780Y-159463796D01*
X100097796Y-159476491D01*
X100055372Y-159486541D01*
X100051922Y-159487140D01*
X100009252Y-159492356D01*
X99951866Y-159496730D01*
X99886849Y-159499818D01*
X99821289Y-159501177D01*
X99805057Y-159501218D01*
X99706744Y-159498741D01*
X99626692Y-159490735D01*
X99561513Y-159476203D01*
X99507817Y-159454149D01*
X99462216Y-159423576D01*
X99421323Y-159383486D01*
X99401202Y-159357259D01*
X99389576Y-159327712D01*
X99386667Y-159287995D01*
X99386808Y-159276026D01*
X99390681Y-159243345D01*
X99403065Y-159216819D01*
X99428230Y-159185971D01*
X99449442Y-159163831D01*
X99475838Y-159141285D01*
X99505555Y-159122917D01*
X99541785Y-159107661D01*
X99587717Y-159094449D01*
X99646544Y-159082214D01*
X99721456Y-159069889D01*
X99815645Y-159056406D01*
X99860957Y-159049396D01*
X99928911Y-159034837D01*
X99978047Y-159018337D01*
X100007614Y-159000439D01*
X100016864Y-158981685D01*
X100005048Y-158962615D01*
X99971416Y-158943771D01*
X99968370Y-158942557D01*
X99922011Y-158930479D01*
X99859361Y-158922279D01*
X99785927Y-158918119D01*
X99707217Y-158918161D01*
X99628739Y-158922569D01*
X99556000Y-158931505D01*
X99552073Y-158932154D01*
X99503257Y-158939861D01*
X99471005Y-158943473D01*
X99450008Y-158942876D01*
X99434954Y-158937954D01*
X99420534Y-158928596D01*
X99419364Y-158927725D01*
X99394847Y-158897351D01*
X99390054Y-158861850D01*
X99405860Y-158827269D01*
X99410406Y-158822813D01*
X99440020Y-158807673D01*
X99487002Y-158794550D01*
X99547306Y-158783750D01*
X99616888Y-158775581D01*
X99691703Y-158770351D01*
X99767706Y-158768367D01*
X99840853Y-158769936D01*
G36*
X99840853Y-158769936D02*
G01*
X99907100Y-158775366D01*
X99962400Y-158784964D01*
X100013283Y-158799825D01*
X100084595Y-158832958D01*
X100135752Y-158875640D01*
X100166575Y-158927705D01*
X100176889Y-158988983D01*
X100175952Y-159020232D01*
X100170160Y-159045029D01*
X100155353Y-159066699D01*
X100127380Y-159094049D01*
X100119402Y-159101378D01*
X100095692Y-159122281D01*
X100073298Y-159139251D01*
X100049265Y-159153205D01*
X100020637Y-159165056D01*
X99984460Y-159175720D01*
X99937780Y-159186111D01*
X99877641Y-159197146D01*
X99801090Y-159209738D01*
X99705171Y-159224804D01*
X99686808Y-159227838D01*
X99624478Y-159241458D01*
X99579260Y-159257192D01*
X99552976Y-159274263D01*
X99547447Y-159291897D01*
X99550068Y-159296168D01*
X99568000Y-159311233D01*
X99596126Y-159327867D01*
X99608926Y-159333857D01*
X99630224Y-159341050D01*
X99656610Y-159345827D01*
X99692454Y-159348646D01*
X99742128Y-159349964D01*
X99810000Y-159350237D01*
X99827785Y-159350164D01*
X99895406Y-159349053D01*
X99960345Y-159346828D01*
X100015970Y-159343762D01*
X100055651Y-159340127D01*
X100091162Y-159336059D01*
X100120415Y-159335276D01*
X100139315Y-159339876D01*
X100154429Y-159350551D01*
X100158085Y-159354144D01*
X100174427Y-159385918D01*
X100173107Y-159421572D01*
X100154150Y-159452190D01*
X100133780Y-159463796D01*
X100097796Y-159476491D01*
X100055372Y-159486541D01*
X100051922Y-159487140D01*
X100009252Y-159492356D01*
X99951866Y-159496730D01*
X99886849Y-159499818D01*
X99821289Y-159501177D01*
X99805057Y-159501218D01*
X99706744Y-159498741D01*
X99626692Y-159490735D01*
X99561513Y-159476203D01*
X99507817Y-159454149D01*
X99462216Y-159423576D01*
X99421323Y-159383486D01*
X99401202Y-159357259D01*
X99389576Y-159327712D01*
X99386667Y-159287995D01*
X99386808Y-159276026D01*
X99390681Y-159243345D01*
X99403065Y-159216819D01*
X99428230Y-159185971D01*
X99449442Y-159163831D01*
X99475838Y-159141285D01*
X99505555Y-159122917D01*
X99541785Y-159107661D01*
X99587717Y-159094449D01*
X99646544Y-159082214D01*
X99721456Y-159069889D01*
X99815645Y-159056406D01*
X99860957Y-159049396D01*
X99928911Y-159034837D01*
X99978047Y-159018337D01*
X100007614Y-159000439D01*
X100016864Y-158981685D01*
X100005048Y-158962615D01*
X99971416Y-158943771D01*
X99968370Y-158942557D01*
X99922011Y-158930479D01*
X99859361Y-158922279D01*
X99785927Y-158918119D01*
X99707217Y-158918161D01*
X99628739Y-158922569D01*
X99556000Y-158931505D01*
X99552073Y-158932154D01*
X99503257Y-158939861D01*
X99471005Y-158943473D01*
X99450008Y-158942876D01*
X99434954Y-158937954D01*
X99420534Y-158928596D01*
X99419364Y-158927725D01*
X99394847Y-158897351D01*
X99390054Y-158861850D01*
X99405860Y-158827269D01*
X99410406Y-158822813D01*
X99440020Y-158807673D01*
X99487002Y-158794550D01*
X99547306Y-158783750D01*
X99616888Y-158775581D01*
X99691703Y-158770351D01*
X99767706Y-158768367D01*
X99840853Y-158769936D01*
G37*
X95988711Y-154462033D02*
X96084268Y-154479523D01*
X96248558Y-154524564D01*
X96402589Y-154587656D01*
X96548509Y-154669915D01*
X96688466Y-154772457D01*
X96824608Y-154896399D01*
X96868473Y-154941661D01*
X96980758Y-155073865D01*
X97073972Y-155211832D01*
X97150719Y-155359750D01*
X97213603Y-155521803D01*
X97217420Y-155533391D01*
X97267507Y-155719392D01*
X97300899Y-155915521D01*
X97317584Y-156117568D01*
X97317551Y-156321325D01*
X97300791Y-156522581D01*
X97267292Y-156717128D01*
X97217044Y-156900756D01*
X97173190Y-157018053D01*
X97095348Y-157180951D01*
X97001828Y-157334866D01*
X96894822Y-157476671D01*
X96776519Y-157603239D01*
X96649111Y-157711441D01*
X96571606Y-157764120D01*
X96444725Y-157833750D01*
X96307243Y-157892468D01*
X96165716Y-157937587D01*
X96026702Y-157966422D01*
X96012597Y-157968106D01*
X95969153Y-157971434D01*
X95911723Y-157974275D01*
X95846122Y-157976373D01*
X95778167Y-157977468D01*
X95651378Y-157975140D01*
X95503673Y-157962136D01*
X95365779Y-157937133D01*
X95232014Y-157899318D01*
X95208562Y-157890889D01*
X95160612Y-157871408D01*
X95104140Y-157846473D01*
X95042379Y-157817722D01*
X94978563Y-157786790D01*
X94915926Y-157755315D01*
X94857703Y-157724934D01*
X94807127Y-157697283D01*
X94767433Y-157673999D01*
X94741854Y-157656718D01*
X94733625Y-157647079D01*
X94735076Y-157643984D01*
X94746250Y-157624079D01*
X94767134Y-157588420D01*
X94796265Y-157539459D01*
X94832181Y-157479646D01*
X94873420Y-157411433D01*
X94918517Y-157337271D01*
X95099785Y-157040008D01*
X95146315Y-157084539D01*
X95237723Y-157162865D01*
X95351334Y-157237439D01*
X95469122Y-157291474D01*
X95589559Y-157324290D01*
X95711117Y-157335211D01*
X95752585Y-157333868D01*
X95870080Y-157315612D01*
X95980089Y-157276617D01*
X96081430Y-157217670D01*
X96172921Y-157139557D01*
X96253380Y-157043064D01*
X96321627Y-156928978D01*
X96337908Y-156894724D01*
X96383982Y-156771240D01*
X96419106Y-156632918D01*
X96443197Y-156483561D01*
X96456173Y-156326973D01*
X96457949Y-156166956D01*
X96448443Y-156007314D01*
X96427572Y-155851850D01*
X96395252Y-155704366D01*
X96351399Y-155568667D01*
X96313982Y-155482076D01*
X96249185Y-155368688D01*
X96173772Y-155275070D01*
X96087418Y-155200959D01*
X95989795Y-155146094D01*
X95880577Y-155110212D01*
X95759439Y-155093051D01*
X95690038Y-155091880D01*
X95567168Y-155106141D01*
X95451664Y-155141241D01*
X95344953Y-155196682D01*
X95248464Y-155271964D01*
X95232720Y-155286440D01*
X95202150Y-155312962D01*
X95179809Y-155330138D01*
X95169691Y-155334787D01*
X95167706Y-155332597D01*
X95153241Y-155313721D01*
X95129400Y-155280397D01*
X95098029Y-155235380D01*
X95060974Y-155181425D01*
X95020083Y-155121285D01*
X94977202Y-155057718D01*
X94934178Y-154993476D01*
X94892857Y-154931315D01*
X94855086Y-154873991D01*
X94822712Y-154824257D01*
X94797582Y-154784868D01*
X94781542Y-154758580D01*
X94776439Y-154748147D01*
X94781050Y-154743941D01*
X94800267Y-154738933D01*
X94809838Y-154736386D01*
X94837809Y-154725249D01*
X94879448Y-154706802D01*
X94930995Y-154682725D01*
X94988690Y-154654699D01*
X94999957Y-154649154D01*
X95177687Y-154569889D01*
X95347490Y-154510385D01*
X95511430Y-154470245D01*
X95671571Y-154449071D01*
X95829977Y-154446466D01*
X95988711Y-154462033D01*
G36*
X95988711Y-154462033D02*
G01*
X96084268Y-154479523D01*
X96248558Y-154524564D01*
X96402589Y-154587656D01*
X96548509Y-154669915D01*
X96688466Y-154772457D01*
X96824608Y-154896399D01*
X96868473Y-154941661D01*
X96980758Y-155073865D01*
X97073972Y-155211832D01*
X97150719Y-155359750D01*
X97213603Y-155521803D01*
X97217420Y-155533391D01*
X97267507Y-155719392D01*
X97300899Y-155915521D01*
X97317584Y-156117568D01*
X97317551Y-156321325D01*
X97300791Y-156522581D01*
X97267292Y-156717128D01*
X97217044Y-156900756D01*
X97173190Y-157018053D01*
X97095348Y-157180951D01*
X97001828Y-157334866D01*
X96894822Y-157476671D01*
X96776519Y-157603239D01*
X96649111Y-157711441D01*
X96571606Y-157764120D01*
X96444725Y-157833750D01*
X96307243Y-157892468D01*
X96165716Y-157937587D01*
X96026702Y-157966422D01*
X96012597Y-157968106D01*
X95969153Y-157971434D01*
X95911723Y-157974275D01*
X95846122Y-157976373D01*
X95778167Y-157977468D01*
X95651378Y-157975140D01*
X95503673Y-157962136D01*
X95365779Y-157937133D01*
X95232014Y-157899318D01*
X95208562Y-157890889D01*
X95160612Y-157871408D01*
X95104140Y-157846473D01*
X95042379Y-157817722D01*
X94978563Y-157786790D01*
X94915926Y-157755315D01*
X94857703Y-157724934D01*
X94807127Y-157697283D01*
X94767433Y-157673999D01*
X94741854Y-157656718D01*
X94733625Y-157647079D01*
X94735076Y-157643984D01*
X94746250Y-157624079D01*
X94767134Y-157588420D01*
X94796265Y-157539459D01*
X94832181Y-157479646D01*
X94873420Y-157411433D01*
X94918517Y-157337271D01*
X95099785Y-157040008D01*
X95146315Y-157084539D01*
X95237723Y-157162865D01*
X95351334Y-157237439D01*
X95469122Y-157291474D01*
X95589559Y-157324290D01*
X95711117Y-157335211D01*
X95752585Y-157333868D01*
X95870080Y-157315612D01*
X95980089Y-157276617D01*
X96081430Y-157217670D01*
X96172921Y-157139557D01*
X96253380Y-157043064D01*
X96321627Y-156928978D01*
X96337908Y-156894724D01*
X96383982Y-156771240D01*
X96419106Y-156632918D01*
X96443197Y-156483561D01*
X96456173Y-156326973D01*
X96457949Y-156166956D01*
X96448443Y-156007314D01*
X96427572Y-155851850D01*
X96395252Y-155704366D01*
X96351399Y-155568667D01*
X96313982Y-155482076D01*
X96249185Y-155368688D01*
X96173772Y-155275070D01*
X96087418Y-155200959D01*
X95989795Y-155146094D01*
X95880577Y-155110212D01*
X95759439Y-155093051D01*
X95690038Y-155091880D01*
X95567168Y-155106141D01*
X95451664Y-155141241D01*
X95344953Y-155196682D01*
X95248464Y-155271964D01*
X95232720Y-155286440D01*
X95202150Y-155312962D01*
X95179809Y-155330138D01*
X95169691Y-155334787D01*
X95167706Y-155332597D01*
X95153241Y-155313721D01*
X95129400Y-155280397D01*
X95098029Y-155235380D01*
X95060974Y-155181425D01*
X95020083Y-155121285D01*
X94977202Y-155057718D01*
X94934178Y-154993476D01*
X94892857Y-154931315D01*
X94855086Y-154873991D01*
X94822712Y-154824257D01*
X94797582Y-154784868D01*
X94781542Y-154758580D01*
X94776439Y-154748147D01*
X94781050Y-154743941D01*
X94800267Y-154738933D01*
X94809838Y-154736386D01*
X94837809Y-154725249D01*
X94879448Y-154706802D01*
X94930995Y-154682725D01*
X94988690Y-154654699D01*
X94999957Y-154649154D01*
X95177687Y-154569889D01*
X95347490Y-154510385D01*
X95511430Y-154470245D01*
X95671571Y-154449071D01*
X95829977Y-154446466D01*
X95988711Y-154462033D01*
G37*
X92185994Y-156742711D02*
X92185268Y-156820158D01*
X92176689Y-156971594D01*
X92157833Y-157108283D01*
X92127837Y-157234276D01*
X92085836Y-157353625D01*
X92030969Y-157470381D01*
X91964167Y-157581179D01*
X91873363Y-157694739D01*
X91769708Y-157790211D01*
X91653887Y-157867073D01*
X91526586Y-157924797D01*
X91388489Y-157962858D01*
X91350793Y-157968666D01*
X91271752Y-157974396D01*
X91183629Y-157974583D01*
X91094236Y-157969539D01*
X91011384Y-157959578D01*
X90942887Y-157945012D01*
X90912035Y-157935364D01*
X90834730Y-157905123D01*
X90757679Y-157867617D01*
X90688200Y-157826614D01*
X90633615Y-157785879D01*
X90610916Y-157766505D01*
X90588201Y-157748662D01*
X90576779Y-157741778D01*
X90575537Y-157743424D01*
X90572728Y-157761205D01*
X90570776Y-157794370D01*
X90570045Y-157837733D01*
X90570045Y-157933689D01*
X89711896Y-157933689D01*
X89746161Y-157872974D01*
X89751355Y-157863868D01*
X89759715Y-157849249D01*
X89767288Y-157835173D01*
X89774112Y-157820540D01*
X89780227Y-157804249D01*
X89785673Y-157785198D01*
X89790487Y-157762286D01*
X89794708Y-157734413D01*
X89798377Y-157700478D01*
X89801531Y-157659379D01*
X89804211Y-157610015D01*
X89806454Y-157551286D01*
X89808299Y-157482090D01*
X89809787Y-157401326D01*
X89810955Y-157307894D01*
X89811844Y-157200692D01*
X89812491Y-157078620D01*
X89812936Y-156940576D01*
X89813218Y-156785459D01*
X89813375Y-156612168D01*
X89813448Y-156419603D01*
X89813474Y-156206662D01*
X89813485Y-156070530D01*
X90615200Y-156070530D01*
X90615200Y-157220721D01*
X90685756Y-157267089D01*
X90726417Y-157290791D01*
X90780546Y-157316639D01*
X90829689Y-157334829D01*
X90893165Y-157350551D01*
X90989331Y-157361541D01*
X91073900Y-157353365D01*
X91147219Y-157325805D01*
X91209637Y-157278642D01*
X91261502Y-157211658D01*
X91303160Y-157124633D01*
X91334962Y-157017350D01*
X91337545Y-157005009D01*
X91346000Y-156943772D01*
X91351663Y-156866692D01*
X91354576Y-156779002D01*
X91354783Y-156685934D01*
X91352330Y-156592720D01*
X91347261Y-156504594D01*
X91339619Y-156426788D01*
X91329448Y-156364533D01*
X91328167Y-156358666D01*
X91299126Y-156248121D01*
X91264610Y-156157575D01*
X91223456Y-156084953D01*
X91174499Y-156028181D01*
X91116574Y-155985184D01*
X91084620Y-155969615D01*
X91011784Y-155950722D01*
X90930443Y-155947465D01*
X90845319Y-155959389D01*
X90761133Y-155986040D01*
X90682608Y-156026962D01*
X90615200Y-156070530D01*
X89813485Y-156070530D01*
X89813493Y-155972245D01*
X89813689Y-154287378D01*
X90719017Y-154287378D01*
X90694585Y-154324067D01*
X90688318Y-154333647D01*
X90662208Y-154379981D01*
X90644469Y-154427102D01*
X90632908Y-154482251D01*
X90625331Y-154552667D01*
X90624839Y-154559650D01*
X90623062Y-154597641D01*
X90621444Y-154651576D01*
X90619999Y-154718703D01*
X90618740Y-154796271D01*
X90617680Y-154881528D01*
X90616829Y-154971724D01*
X90616203Y-155064107D01*
X90615812Y-155155925D01*
X90615670Y-155244427D01*
X90615790Y-155326862D01*
X90616183Y-155400479D01*
X90616862Y-155462526D01*
X90617841Y-155510251D01*
X90619132Y-155540904D01*
X90620747Y-155551733D01*
X90628957Y-155547333D01*
X90650647Y-155532362D01*
X90680014Y-155510448D01*
X90728879Y-155476236D01*
X90817125Y-155429714D01*
X90915916Y-155396046D01*
X91028510Y-155374231D01*
X91158164Y-155363265D01*
X91250670Y-155362219D01*
X91372011Y-155372014D01*
X91482099Y-155396174D01*
X91585389Y-155435785D01*
X91686338Y-155491932D01*
X91731503Y-155522883D01*
X91836911Y-155614115D01*
X91928538Y-155723106D01*
X92006332Y-155849726D01*
X92070241Y-155993845D01*
X92120214Y-156155332D01*
X92156198Y-156334059D01*
X92178143Y-156529895D01*
X92183900Y-156685934D01*
X92185994Y-156742711D01*
G36*
X92185994Y-156742711D02*
G01*
X92185268Y-156820158D01*
X92176689Y-156971594D01*
X92157833Y-157108283D01*
X92127837Y-157234276D01*
X92085836Y-157353625D01*
X92030969Y-157470381D01*
X91964167Y-157581179D01*
X91873363Y-157694739D01*
X91769708Y-157790211D01*
X91653887Y-157867073D01*
X91526586Y-157924797D01*
X91388489Y-157962858D01*
X91350793Y-157968666D01*
X91271752Y-157974396D01*
X91183629Y-157974583D01*
X91094236Y-157969539D01*
X91011384Y-157959578D01*
X90942887Y-157945012D01*
X90912035Y-157935364D01*
X90834730Y-157905123D01*
X90757679Y-157867617D01*
X90688200Y-157826614D01*
X90633615Y-157785879D01*
X90610916Y-157766505D01*
X90588201Y-157748662D01*
X90576779Y-157741778D01*
X90575537Y-157743424D01*
X90572728Y-157761205D01*
X90570776Y-157794370D01*
X90570045Y-157837733D01*
X90570045Y-157933689D01*
X89711896Y-157933689D01*
X89746161Y-157872974D01*
X89751355Y-157863868D01*
X89759715Y-157849249D01*
X89767288Y-157835173D01*
X89774112Y-157820540D01*
X89780227Y-157804249D01*
X89785673Y-157785198D01*
X89790487Y-157762286D01*
X89794708Y-157734413D01*
X89798377Y-157700478D01*
X89801531Y-157659379D01*
X89804211Y-157610015D01*
X89806454Y-157551286D01*
X89808299Y-157482090D01*
X89809787Y-157401326D01*
X89810955Y-157307894D01*
X89811844Y-157200692D01*
X89812491Y-157078620D01*
X89812936Y-156940576D01*
X89813218Y-156785459D01*
X89813375Y-156612168D01*
X89813448Y-156419603D01*
X89813474Y-156206662D01*
X89813485Y-156070530D01*
X90615200Y-156070530D01*
X90615200Y-157220721D01*
X90685756Y-157267089D01*
X90726417Y-157290791D01*
X90780546Y-157316639D01*
X90829689Y-157334829D01*
X90893165Y-157350551D01*
X90989331Y-157361541D01*
X91073900Y-157353365D01*
X91147219Y-157325805D01*
X91209637Y-157278642D01*
X91261502Y-157211658D01*
X91303160Y-157124633D01*
X91334962Y-157017350D01*
X91337545Y-157005009D01*
X91346000Y-156943772D01*
X91351663Y-156866692D01*
X91354576Y-156779002D01*
X91354783Y-156685934D01*
X91352330Y-156592720D01*
X91347261Y-156504594D01*
X91339619Y-156426788D01*
X91329448Y-156364533D01*
X91328167Y-156358666D01*
X91299126Y-156248121D01*
X91264610Y-156157575D01*
X91223456Y-156084953D01*
X91174499Y-156028181D01*
X91116574Y-155985184D01*
X91084620Y-155969615D01*
X91011784Y-155950722D01*
X90930443Y-155947465D01*
X90845319Y-155959389D01*
X90761133Y-155986040D01*
X90682608Y-156026962D01*
X90615200Y-156070530D01*
X89813485Y-156070530D01*
X89813493Y-155972245D01*
X89813689Y-154287378D01*
X90719017Y-154287378D01*
X90694585Y-154324067D01*
X90688318Y-154333647D01*
X90662208Y-154379981D01*
X90644469Y-154427102D01*
X90632908Y-154482251D01*
X90625331Y-154552667D01*
X90624839Y-154559650D01*
X90623062Y-154597641D01*
X90621444Y-154651576D01*
X90619999Y-154718703D01*
X90618740Y-154796271D01*
X90617680Y-154881528D01*
X90616829Y-154971724D01*
X90616203Y-155064107D01*
X90615812Y-155155925D01*
X90615670Y-155244427D01*
X90615790Y-155326862D01*
X90616183Y-155400479D01*
X90616862Y-155462526D01*
X90617841Y-155510251D01*
X90619132Y-155540904D01*
X90620747Y-155551733D01*
X90628957Y-155547333D01*
X90650647Y-155532362D01*
X90680014Y-155510448D01*
X90728879Y-155476236D01*
X90817125Y-155429714D01*
X90915916Y-155396046D01*
X91028510Y-155374231D01*
X91158164Y-155363265D01*
X91250670Y-155362219D01*
X91372011Y-155372014D01*
X91482099Y-155396174D01*
X91585389Y-155435785D01*
X91686338Y-155491932D01*
X91731503Y-155522883D01*
X91836911Y-155614115D01*
X91928538Y-155723106D01*
X92006332Y-155849726D01*
X92070241Y-155993845D01*
X92120214Y-156155332D01*
X92156198Y-156334059D01*
X92178143Y-156529895D01*
X92183900Y-156685934D01*
X92185994Y-156742711D01*
G37*
X94727755Y-157143467D02*
X94727261Y-157177363D01*
X94723632Y-157252202D01*
X94716022Y-157314401D01*
X94703688Y-157370984D01*
X94659313Y-157497076D01*
X94596400Y-157611679D01*
X94516238Y-157712568D01*
X94419740Y-157798924D01*
X94307822Y-157869932D01*
X94181397Y-157924776D01*
X94041378Y-157962638D01*
X94005149Y-157968351D01*
X93926155Y-157974313D01*
X93837841Y-157974646D01*
X93748075Y-157969659D01*
X93664722Y-157959666D01*
X93595651Y-157944978D01*
X93509187Y-157914749D01*
X93399286Y-157860057D01*
X93301956Y-157792543D01*
X93239867Y-157741556D01*
X93236605Y-157837622D01*
X93233343Y-157933689D01*
X92810450Y-157933689D01*
X92799543Y-157933686D01*
X92705056Y-157933380D01*
X92618331Y-157932616D01*
X92541837Y-157931451D01*
X92478043Y-157929942D01*
X92429418Y-157928147D01*
X92398433Y-157926121D01*
X92387556Y-157923922D01*
X92387578Y-157923463D01*
X92394614Y-157907910D01*
X92410434Y-157885071D01*
X92414734Y-157879638D01*
X92425777Y-157865606D01*
X92435311Y-157852186D01*
X92443461Y-157837722D01*
X92450352Y-157820556D01*
X92456111Y-157799034D01*
X92460862Y-157771498D01*
X92464731Y-157736292D01*
X92467844Y-157691760D01*
X92470325Y-157636246D01*
X92472300Y-157568093D01*
X92473894Y-157485645D01*
X92475234Y-157387246D01*
X92476444Y-157271239D01*
X92477649Y-157135968D01*
X92478595Y-157024586D01*
X93279378Y-157024586D01*
X93279378Y-157220462D01*
X93324048Y-157276973D01*
X93336785Y-157292212D01*
X93383604Y-157334844D01*
X93444255Y-157370672D01*
X93454897Y-157375850D01*
X93493676Y-157392745D01*
X93528692Y-157402909D01*
X93568722Y-157408325D01*
X93622541Y-157410978D01*
X93640648Y-157411383D01*
X93716011Y-157408540D01*
X93776743Y-157396620D01*
X93828452Y-157374037D01*
X93876746Y-157339211D01*
X93881803Y-157334798D01*
X93930272Y-157279160D01*
X93958459Y-157215333D01*
X93967752Y-157140282D01*
X93960520Y-157068693D01*
X93935796Y-157005645D01*
X93891249Y-156947758D01*
X93836319Y-156900808D01*
X93763894Y-156860961D01*
X93677340Y-156833263D01*
X93574670Y-156817096D01*
X93453894Y-156811842D01*
X93445007Y-156811857D01*
X93389660Y-156812655D01*
X93342736Y-156814488D01*
X93308953Y-156817111D01*
X93293028Y-156820274D01*
X93288943Y-156826741D01*
X93284572Y-156848875D01*
X93281604Y-156887988D01*
X93279914Y-156945939D01*
X93279378Y-157024586D01*
X92478595Y-157024586D01*
X92478975Y-156979778D01*
X92480228Y-156837012D01*
X92481651Y-156691942D01*
X92483176Y-156566027D01*
X92484933Y-156457436D01*
X92487051Y-156364334D01*
X92489660Y-156284891D01*
X92492890Y-156217273D01*
X92496869Y-156159649D01*
X92501728Y-156110185D01*
X92507597Y-156067050D01*
X92514604Y-156028410D01*
X92522880Y-155992434D01*
X92532554Y-155957289D01*
X92543756Y-155921142D01*
X92556616Y-155882161D01*
X92572090Y-155839091D01*
X92614994Y-155746871D01*
X92668735Y-155667099D01*
X92737576Y-155592965D01*
X92815185Y-155529405D01*
X92919761Y-155467725D01*
X93039244Y-155420202D01*
X93174508Y-155386567D01*
X93326426Y-155366552D01*
X93495872Y-155359889D01*
X93553890Y-155360287D01*
X93619398Y-155362335D01*
X93680693Y-155366704D01*
X93742097Y-155374035D01*
X93807932Y-155384969D01*
X93882520Y-155400147D01*
X93970184Y-155420209D01*
X94075245Y-155445797D01*
X94103806Y-155452820D01*
X94179054Y-155470776D01*
X94249388Y-155486820D01*
X94310567Y-155500028D01*
X94358354Y-155509474D01*
X94388511Y-155514231D01*
X94416783Y-155517910D01*
X94443060Y-155523187D01*
X94453059Y-155527942D01*
X94449952Y-155536781D01*
X94439194Y-155564072D01*
X94421864Y-155606906D01*
X94399126Y-155662425D01*
X94372147Y-155727772D01*
X94342090Y-155800089D01*
X94335493Y-155815879D01*
X94296907Y-155906484D01*
X94265768Y-155976217D01*
X94241917Y-156025405D01*
X94225198Y-156054374D01*
X94215454Y-156063452D01*
X94207766Y-156061405D01*
X94181415Y-156051760D01*
X94142982Y-156036190D01*
X94097822Y-156016815D01*
X94003293Y-155978814D01*
X93866480Y-155937780D01*
X93725289Y-155912612D01*
X93687314Y-155908611D01*
X93584059Y-155906447D01*
X93496952Y-155919622D01*
X93425129Y-155948756D01*
X93367731Y-155994466D01*
X93323896Y-156057372D01*
X93292762Y-156138092D01*
X93273470Y-156237245D01*
X93266050Y-156296224D01*
X93427936Y-156289445D01*
X93554495Y-156287813D01*
X93705951Y-156294194D01*
X93854396Y-156308777D01*
X93990578Y-156330882D01*
X94055245Y-156345821D01*
X94187490Y-156388741D01*
X94309762Y-156445340D01*
X94419685Y-156514017D01*
X94514883Y-156593170D01*
X94592980Y-156681196D01*
X94651599Y-156776493D01*
X94675595Y-156828864D01*
X94701232Y-156899590D01*
X94717478Y-156970812D01*
X94725822Y-157049712D01*
X94727690Y-157140282D01*
X94727755Y-157143467D01*
G36*
X94727755Y-157143467D02*
G01*
X94727261Y-157177363D01*
X94723632Y-157252202D01*
X94716022Y-157314401D01*
X94703688Y-157370984D01*
X94659313Y-157497076D01*
X94596400Y-157611679D01*
X94516238Y-157712568D01*
X94419740Y-157798924D01*
X94307822Y-157869932D01*
X94181397Y-157924776D01*
X94041378Y-157962638D01*
X94005149Y-157968351D01*
X93926155Y-157974313D01*
X93837841Y-157974646D01*
X93748075Y-157969659D01*
X93664722Y-157959666D01*
X93595651Y-157944978D01*
X93509187Y-157914749D01*
X93399286Y-157860057D01*
X93301956Y-157792543D01*
X93239867Y-157741556D01*
X93236605Y-157837622D01*
X93233343Y-157933689D01*
X92810450Y-157933689D01*
X92799543Y-157933686D01*
X92705056Y-157933380D01*
X92618331Y-157932616D01*
X92541837Y-157931451D01*
X92478043Y-157929942D01*
X92429418Y-157928147D01*
X92398433Y-157926121D01*
X92387556Y-157923922D01*
X92387578Y-157923463D01*
X92394614Y-157907910D01*
X92410434Y-157885071D01*
X92414734Y-157879638D01*
X92425777Y-157865606D01*
X92435311Y-157852186D01*
X92443461Y-157837722D01*
X92450352Y-157820556D01*
X92456111Y-157799034D01*
X92460862Y-157771498D01*
X92464731Y-157736292D01*
X92467844Y-157691760D01*
X92470325Y-157636246D01*
X92472300Y-157568093D01*
X92473894Y-157485645D01*
X92475234Y-157387246D01*
X92476444Y-157271239D01*
X92477649Y-157135968D01*
X92478595Y-157024586D01*
X93279378Y-157024586D01*
X93279378Y-157220462D01*
X93324048Y-157276973D01*
X93336785Y-157292212D01*
X93383604Y-157334844D01*
X93444255Y-157370672D01*
X93454897Y-157375850D01*
X93493676Y-157392745D01*
X93528692Y-157402909D01*
X93568722Y-157408325D01*
X93622541Y-157410978D01*
X93640648Y-157411383D01*
X93716011Y-157408540D01*
X93776743Y-157396620D01*
X93828452Y-157374037D01*
X93876746Y-157339211D01*
X93881803Y-157334798D01*
X93930272Y-157279160D01*
X93958459Y-157215333D01*
X93967752Y-157140282D01*
X93960520Y-157068693D01*
X93935796Y-157005645D01*
X93891249Y-156947758D01*
X93836319Y-156900808D01*
X93763894Y-156860961D01*
X93677340Y-156833263D01*
X93574670Y-156817096D01*
X93453894Y-156811842D01*
X93445007Y-156811857D01*
X93389660Y-156812655D01*
X93342736Y-156814488D01*
X93308953Y-156817111D01*
X93293028Y-156820274D01*
X93288943Y-156826741D01*
X93284572Y-156848875D01*
X93281604Y-156887988D01*
X93279914Y-156945939D01*
X93279378Y-157024586D01*
X92478595Y-157024586D01*
X92478975Y-156979778D01*
X92480228Y-156837012D01*
X92481651Y-156691942D01*
X92483176Y-156566027D01*
X92484933Y-156457436D01*
X92487051Y-156364334D01*
X92489660Y-156284891D01*
X92492890Y-156217273D01*
X92496869Y-156159649D01*
X92501728Y-156110185D01*
X92507597Y-156067050D01*
X92514604Y-156028410D01*
X92522880Y-155992434D01*
X92532554Y-155957289D01*
X92543756Y-155921142D01*
X92556616Y-155882161D01*
X92572090Y-155839091D01*
X92614994Y-155746871D01*
X92668735Y-155667099D01*
X92737576Y-155592965D01*
X92815185Y-155529405D01*
X92919761Y-155467725D01*
X93039244Y-155420202D01*
X93174508Y-155386567D01*
X93326426Y-155366552D01*
X93495872Y-155359889D01*
X93553890Y-155360287D01*
X93619398Y-155362335D01*
X93680693Y-155366704D01*
X93742097Y-155374035D01*
X93807932Y-155384969D01*
X93882520Y-155400147D01*
X93970184Y-155420209D01*
X94075245Y-155445797D01*
X94103806Y-155452820D01*
X94179054Y-155470776D01*
X94249388Y-155486820D01*
X94310567Y-155500028D01*
X94358354Y-155509474D01*
X94388511Y-155514231D01*
X94416783Y-155517910D01*
X94443060Y-155523187D01*
X94453059Y-155527942D01*
X94449952Y-155536781D01*
X94439194Y-155564072D01*
X94421864Y-155606906D01*
X94399126Y-155662425D01*
X94372147Y-155727772D01*
X94342090Y-155800089D01*
X94335493Y-155815879D01*
X94296907Y-155906484D01*
X94265768Y-155976217D01*
X94241917Y-156025405D01*
X94225198Y-156054374D01*
X94215454Y-156063452D01*
X94207766Y-156061405D01*
X94181415Y-156051760D01*
X94142982Y-156036190D01*
X94097822Y-156016815D01*
X94003293Y-155978814D01*
X93866480Y-155937780D01*
X93725289Y-155912612D01*
X93687314Y-155908611D01*
X93584059Y-155906447D01*
X93496952Y-155919622D01*
X93425129Y-155948756D01*
X93367731Y-155994466D01*
X93323896Y-156057372D01*
X93292762Y-156138092D01*
X93273470Y-156237245D01*
X93266050Y-156296224D01*
X93427936Y-156289445D01*
X93554495Y-156287813D01*
X93705951Y-156294194D01*
X93854396Y-156308777D01*
X93990578Y-156330882D01*
X94055245Y-156345821D01*
X94187490Y-156388741D01*
X94309762Y-156445340D01*
X94419685Y-156514017D01*
X94514883Y-156593170D01*
X94592980Y-156681196D01*
X94651599Y-156776493D01*
X94675595Y-156828864D01*
X94701232Y-156899590D01*
X94717478Y-156970812D01*
X94725822Y-157049712D01*
X94727690Y-157140282D01*
X94727755Y-157143467D01*
G37*
X102275614Y-154611792D02*
X102276059Y-154743011D01*
X102276362Y-154890216D01*
X102276548Y-155054349D01*
X102276642Y-155236352D01*
X102276671Y-155437165D01*
X102276661Y-155657732D01*
X102276636Y-155898992D01*
X102276622Y-156161889D01*
X102276622Y-156204040D01*
X102276646Y-156464668D01*
X102276685Y-156703796D01*
X102276708Y-156922360D01*
X102276687Y-157121295D01*
X102276593Y-157301535D01*
X102276395Y-157464015D01*
X102276063Y-157609670D01*
X102275569Y-157739434D01*
X102274883Y-157854243D01*
X102273976Y-157955030D01*
X102272817Y-158042730D01*
X102271378Y-158118279D01*
X102269629Y-158182611D01*
X102267540Y-158236661D01*
X102265083Y-158281363D01*
X102262227Y-158317652D01*
X102258943Y-158346463D01*
X102255202Y-158368731D01*
X102250974Y-158385390D01*
X102246229Y-158397375D01*
X102240939Y-158405621D01*
X102235073Y-158411062D01*
X102228602Y-158414634D01*
X102221497Y-158417270D01*
X102213728Y-158419906D01*
X102205266Y-158423477D01*
X102200908Y-158425145D01*
X102192395Y-158427111D01*
X102179694Y-158428911D01*
X102161885Y-158430555D01*
X102138049Y-158432047D01*
X102107266Y-158433397D01*
X102068617Y-158434611D01*
X102021182Y-158435697D01*
X101964043Y-158436661D01*
X101896279Y-158437511D01*
X101816971Y-158438253D01*
X101725199Y-158438897D01*
X101620044Y-158439447D01*
X101500587Y-158439913D01*
X101365908Y-158440300D01*
X101215088Y-158440616D01*
X101047206Y-158440869D01*
X100861345Y-158441066D01*
X100656583Y-158441213D01*
X100432002Y-158441318D01*
X100186682Y-158441389D01*
X99919704Y-158441432D01*
X99881321Y-158441437D01*
X99615922Y-158441480D01*
X99372050Y-158441525D01*
X99148783Y-158441548D01*
X98945196Y-158441524D01*
X98760367Y-158441430D01*
X98593373Y-158441243D01*
X98443290Y-158440939D01*
X98309196Y-158440494D01*
X98190166Y-158439885D01*
X98085279Y-158439089D01*
X97993610Y-158438080D01*
X97914237Y-158436837D01*
X97846237Y-158435335D01*
X97788686Y-158433551D01*
X97740662Y-158431461D01*
X97701240Y-158429042D01*
X97669499Y-158426270D01*
X97644514Y-158423121D01*
X97625364Y-158419572D01*
X97611123Y-158415598D01*
X97600871Y-158411178D01*
X97593682Y-158406286D01*
X97588635Y-158400900D01*
X97584805Y-158394996D01*
X97581271Y-158388549D01*
X97577108Y-158381537D01*
X97576025Y-158379687D01*
X97573813Y-158374180D01*
X97571786Y-158365868D01*
X97569938Y-158353809D01*
X97568261Y-158337063D01*
X97566745Y-158314687D01*
X97565383Y-158285740D01*
X97564167Y-158249280D01*
X97563089Y-158204367D01*
X97562140Y-158150057D01*
X97561312Y-158085410D01*
X97560597Y-158009484D01*
X97559987Y-157921338D01*
X97559942Y-157912493D01*
X97851378Y-157912493D01*
X97855260Y-157913765D01*
X97878520Y-157915791D01*
X97920874Y-157917626D01*
X97980132Y-157919227D01*
X98054107Y-157920549D01*
X98140610Y-157921548D01*
X98237452Y-157922180D01*
X98342445Y-157922400D01*
X99040651Y-157922400D01*
X100195090Y-157922400D01*
X100194456Y-157846200D01*
X100195574Y-157804160D01*
X100201304Y-157768334D01*
X100213890Y-157730772D01*
X100235568Y-157682577D01*
X100238789Y-157675897D01*
X100264188Y-157626359D01*
X100290996Y-157578369D01*
X100313917Y-157541466D01*
X100318485Y-157534834D01*
X100340516Y-157503593D01*
X100372693Y-157458654D01*
X100413457Y-157402147D01*
X100461245Y-157336204D01*
X100514498Y-157262957D01*
X100571655Y-157184536D01*
X100631155Y-157103072D01*
X100691437Y-157020698D01*
X100750940Y-156939544D01*
X100808105Y-156861742D01*
X100861370Y-156789423D01*
X100909174Y-156724718D01*
X100949957Y-156669759D01*
X100982158Y-156626676D01*
X101004216Y-156597602D01*
X101014571Y-156584667D01*
X101019044Y-156580351D01*
X101023236Y-156578312D01*
X101026643Y-156580926D01*
X101029325Y-156589986D01*
X101031341Y-156607285D01*
X101032748Y-156634614D01*
X101033605Y-156673765D01*
X101033970Y-156726533D01*
X101033903Y-156794707D01*
X101033460Y-156880082D01*
X101032702Y-156984449D01*
X101031685Y-157109600D01*
X101031308Y-157154300D01*
X101030169Y-157275395D01*
X101028972Y-157376688D01*
X101027636Y-157460262D01*
X101026077Y-157528204D01*
X101024215Y-157582599D01*
X101021966Y-157625532D01*
X101019248Y-157659089D01*
X101015979Y-157685355D01*
X101012078Y-157706416D01*
X101007461Y-157724357D01*
X100999192Y-157750770D01*
X100975583Y-157812772D01*
X100949685Y-157865573D01*
X100924535Y-157902645D01*
X100923339Y-157904075D01*
X100921168Y-157908424D01*
X100923328Y-157912026D01*
X100931644Y-157914951D01*
X100947940Y-157917269D01*
X100974041Y-157919051D01*
X101011771Y-157920367D01*
X101062956Y-157921286D01*
X101129420Y-157921878D01*
X101212987Y-157922215D01*
X101315483Y-157922365D01*
X101438732Y-157922400D01*
X101970296Y-157922400D01*
X101931523Y-157864783D01*
X101925432Y-157855893D01*
X101914976Y-157841069D01*
X101905579Y-157827422D01*
X101897183Y-157813765D01*
X101889733Y-157798911D01*
X101883173Y-157781670D01*
X101877446Y-157760855D01*
X101872495Y-157735280D01*
X101868266Y-157703755D01*
X101864701Y-157665093D01*
X101861744Y-157618107D01*
X101859340Y-157561608D01*
X101857431Y-157494409D01*
X101855962Y-157415322D01*
X101854876Y-157323160D01*
X101854118Y-157216734D01*
X101853630Y-157094857D01*
X101853358Y-156956341D01*
X101853243Y-156799999D01*
X101853231Y-156624642D01*
X101853265Y-156429082D01*
X101853289Y-156212133D01*
X101853280Y-156089513D01*
X101853243Y-155884447D01*
X101853227Y-155700116D01*
X101853288Y-155535334D01*
X101853484Y-155388916D01*
X101853870Y-155259674D01*
X101854505Y-155146422D01*
X101855444Y-155047975D01*
X101856745Y-154963144D01*
X101858464Y-154890744D01*
X101860659Y-154829589D01*
X101863385Y-154778492D01*
X101866701Y-154736267D01*
X101870662Y-154701727D01*
X101875325Y-154673686D01*
X101880747Y-154650958D01*
X101886986Y-154632356D01*
X101894097Y-154616693D01*
X101902138Y-154602784D01*
X101911166Y-154589441D01*
X101921236Y-154575479D01*
X101932407Y-154559711D01*
X101972197Y-154501867D01*
X100912314Y-154501867D01*
X100950311Y-154564966D01*
X100964993Y-154590005D01*
X100979531Y-154617586D01*
X100991627Y-154645700D01*
X101001532Y-154676551D01*
X101009494Y-154712344D01*
X101015761Y-154755283D01*
X101020582Y-154807574D01*
X101024206Y-154871419D01*
X101026881Y-154949025D01*
X101028857Y-155042594D01*
X101030382Y-155154333D01*
X101031704Y-155286445D01*
X101032613Y-155406434D01*
X101033020Y-155523063D01*
X101032767Y-155618531D01*
X101031857Y-155692556D01*
X101030293Y-155744855D01*
X101028079Y-155775149D01*
X101025220Y-155783156D01*
X101022161Y-155779858D01*
X101004006Y-155758408D01*
X100974275Y-155721889D01*
X100934639Y-155672442D01*
X100886771Y-155612207D01*
X100832343Y-155543327D01*
X100773027Y-155467943D01*
X100710495Y-155388196D01*
X100646421Y-155306228D01*
X100582475Y-155224180D01*
X100520331Y-155144194D01*
X100461661Y-155068411D01*
X100408137Y-154998973D01*
X100361430Y-154938021D01*
X100323214Y-154887696D01*
X100295161Y-154850140D01*
X100278943Y-154827495D01*
X100233635Y-154755212D01*
X100193661Y-154675463D01*
X100172130Y-154607188D01*
X100168827Y-154549844D01*
X100174116Y-154501867D01*
X99042356Y-154502117D01*
X99081867Y-154532722D01*
X99091248Y-154540089D01*
X99154183Y-154594438D01*
X99222997Y-154662259D01*
X99299596Y-154745516D01*
X99385888Y-154846178D01*
X99403052Y-154866847D01*
X99443833Y-154916409D01*
X99493588Y-154977326D01*
X99550955Y-155047898D01*
X99614569Y-155126424D01*
X99683069Y-155211204D01*
X99755090Y-155300537D01*
X99829270Y-155392722D01*
X99844517Y-155411702D01*
X99904246Y-155486060D01*
X99978653Y-155578848D01*
X100051131Y-155669388D01*
X100120314Y-155755978D01*
X100184841Y-155836918D01*
X100243347Y-155910506D01*
X100294470Y-155975044D01*
X100336847Y-156028829D01*
X100369115Y-156070162D01*
X100389910Y-156097342D01*
X100397869Y-156108668D01*
X100396111Y-156112771D01*
X100383230Y-156133334D01*
X100358885Y-156169561D01*
X100324247Y-156219824D01*
X100280486Y-156282492D01*
X100228775Y-156355936D01*
X100170284Y-156438527D01*
X100106184Y-156528636D01*
X100037646Y-156624631D01*
X99965843Y-156724885D01*
X99891944Y-156827768D01*
X99817121Y-156931650D01*
X99742545Y-157034901D01*
X99669387Y-157135892D01*
X99598819Y-157232994D01*
X99532011Y-157324577D01*
X99470135Y-157409011D01*
X99414361Y-157484667D01*
X99365862Y-157549916D01*
X99325807Y-157603128D01*
X99295369Y-157642673D01*
X99274944Y-157668026D01*
X99228899Y-157722295D01*
X99178612Y-157778775D01*
X99131815Y-157828669D01*
X99040651Y-157922400D01*
X98342445Y-157922400D01*
X98411356Y-157922349D01*
X98509607Y-157922091D01*
X98599030Y-157921637D01*
X98677333Y-157921010D01*
X98742223Y-157920235D01*
X98791411Y-157919335D01*
X98822604Y-157918334D01*
X98833511Y-157917257D01*
X98832322Y-157914037D01*
X98822176Y-157896452D01*
X98805040Y-157870158D01*
X98796540Y-157857691D01*
X98787329Y-157843622D01*
X98779233Y-157829351D01*
X98772185Y-157813479D01*
X98766117Y-157794609D01*
X98760961Y-157771341D01*
X98756651Y-157742278D01*
X98753119Y-157706021D01*
X98750297Y-157661170D01*
X98748118Y-157606328D01*
X98746514Y-157540097D01*
X98745419Y-157461077D01*
X98744765Y-157367871D01*
X98744484Y-157259079D01*
X98744509Y-157133303D01*
X98744772Y-156989145D01*
X98745206Y-156825207D01*
X98745745Y-156640089D01*
X98746279Y-156461232D01*
X98746805Y-156302374D01*
X98747350Y-156163316D01*
X98747945Y-156042665D01*
X98748619Y-155939028D01*
X98749403Y-155851011D01*
X98750326Y-155777223D01*
X98751419Y-155716269D01*
X98752712Y-155666757D01*
X98754235Y-155627293D01*
X98756019Y-155596484D01*
X98758092Y-155572938D01*
X98760486Y-155555260D01*
X98763230Y-155542059D01*
X98766356Y-155531940D01*
X98769892Y-155523511D01*
X98773791Y-155515375D01*
X98793438Y-155478544D01*
X98812225Y-155448391D01*
X98813272Y-155446908D01*
X98827602Y-155424659D01*
X98833511Y-155411702D01*
X98832504Y-155411249D01*
X98815305Y-155409803D01*
X98778656Y-155408480D01*
X98724962Y-155407316D01*
X98656630Y-155406347D01*
X98576064Y-155405611D01*
X98485670Y-155405142D01*
X98387853Y-155404978D01*
X97942195Y-155404978D01*
X97939120Y-156581845D01*
X97936045Y-157758711D01*
X97909407Y-157817622D01*
X97897485Y-157842183D01*
X97880246Y-157872434D01*
X97867074Y-157889560D01*
X97859076Y-157897591D01*
X97851378Y-157912493D01*
X97559942Y-157912493D01*
X97559474Y-157820029D01*
X97559050Y-157704617D01*
X97558706Y-157574160D01*
X97558434Y-157427716D01*
X97558227Y-157264344D01*
X97558076Y-157083101D01*
X97557972Y-156883048D01*
X97557908Y-156663241D01*
X97557876Y-156422739D01*
X97557867Y-156160602D01*
X97557867Y-153969031D01*
X97596249Y-153930649D01*
X97623355Y-153906911D01*
X97650253Y-153895111D01*
X97686560Y-153892267D01*
X97738489Y-153892267D01*
X97738489Y-153980206D01*
X97740427Y-154030102D01*
X97759199Y-154140523D01*
X97796217Y-154241987D01*
X97849369Y-154333152D01*
X97916546Y-154412673D01*
X97995638Y-154479205D01*
X98084534Y-154531406D01*
X98181125Y-154567930D01*
X98283300Y-154587434D01*
X98388950Y-154588573D01*
X98495964Y-154570005D01*
X98602232Y-154530384D01*
X98699219Y-154472516D01*
X98784293Y-154397684D01*
X98853015Y-154309615D01*
X98903918Y-154210616D01*
X98935535Y-154102993D01*
X98946400Y-153989054D01*
X98946400Y-153892267D01*
X100566753Y-153892267D01*
X100777897Y-153892280D01*
X100982020Y-153892330D01*
X101165686Y-153892430D01*
X101329991Y-153892592D01*
X101476029Y-153892829D01*
X101604894Y-153893153D01*
X101717683Y-153893575D01*
X101815488Y-153894109D01*
X101899404Y-153894767D01*
X101970527Y-153895561D01*
X102029950Y-153896504D01*
X102078768Y-153897608D01*
X102118077Y-153898884D01*
X102148969Y-153900347D01*
X102172541Y-153902007D01*
X102189886Y-153903878D01*
X102202099Y-153905972D01*
X102210275Y-153908300D01*
X102215508Y-153910876D01*
X102221504Y-153914445D01*
X102228279Y-153917978D01*
X102234478Y-153921488D01*
X102240126Y-153925918D01*
X102245247Y-153932208D01*
X102249869Y-153941301D01*
X102254015Y-153954139D01*
X102257713Y-153971662D01*
X102260987Y-153994813D01*
X102263863Y-154024534D01*
X102266367Y-154061765D01*
X102268524Y-154107449D01*
X102270360Y-154162527D01*
X102271900Y-154227941D01*
X102273170Y-154304633D01*
X102274195Y-154393544D01*
X102275001Y-154495617D01*
X102275034Y-154501867D01*
X102275614Y-154611792D01*
G36*
X102275614Y-154611792D02*
G01*
X102276059Y-154743011D01*
X102276362Y-154890216D01*
X102276548Y-155054349D01*
X102276642Y-155236352D01*
X102276671Y-155437165D01*
X102276661Y-155657732D01*
X102276636Y-155898992D01*
X102276622Y-156161889D01*
X102276622Y-156204040D01*
X102276646Y-156464668D01*
X102276685Y-156703796D01*
X102276708Y-156922360D01*
X102276687Y-157121295D01*
X102276593Y-157301535D01*
X102276395Y-157464015D01*
X102276063Y-157609670D01*
X102275569Y-157739434D01*
X102274883Y-157854243D01*
X102273976Y-157955030D01*
X102272817Y-158042730D01*
X102271378Y-158118279D01*
X102269629Y-158182611D01*
X102267540Y-158236661D01*
X102265083Y-158281363D01*
X102262227Y-158317652D01*
X102258943Y-158346463D01*
X102255202Y-158368731D01*
X102250974Y-158385390D01*
X102246229Y-158397375D01*
X102240939Y-158405621D01*
X102235073Y-158411062D01*
X102228602Y-158414634D01*
X102221497Y-158417270D01*
X102213728Y-158419906D01*
X102205266Y-158423477D01*
X102200908Y-158425145D01*
X102192395Y-158427111D01*
X102179694Y-158428911D01*
X102161885Y-158430555D01*
X102138049Y-158432047D01*
X102107266Y-158433397D01*
X102068617Y-158434611D01*
X102021182Y-158435697D01*
X101964043Y-158436661D01*
X101896279Y-158437511D01*
X101816971Y-158438253D01*
X101725199Y-158438897D01*
X101620044Y-158439447D01*
X101500587Y-158439913D01*
X101365908Y-158440300D01*
X101215088Y-158440616D01*
X101047206Y-158440869D01*
X100861345Y-158441066D01*
X100656583Y-158441213D01*
X100432002Y-158441318D01*
X100186682Y-158441389D01*
X99919704Y-158441432D01*
X99881321Y-158441437D01*
X99615922Y-158441480D01*
X99372050Y-158441525D01*
X99148783Y-158441548D01*
X98945196Y-158441524D01*
X98760367Y-158441430D01*
X98593373Y-158441243D01*
X98443290Y-158440939D01*
X98309196Y-158440494D01*
X98190166Y-158439885D01*
X98085279Y-158439089D01*
X97993610Y-158438080D01*
X97914237Y-158436837D01*
X97846237Y-158435335D01*
X97788686Y-158433551D01*
X97740662Y-158431461D01*
X97701240Y-158429042D01*
X97669499Y-158426270D01*
X97644514Y-158423121D01*
X97625364Y-158419572D01*
X97611123Y-158415598D01*
X97600871Y-158411178D01*
X97593682Y-158406286D01*
X97588635Y-158400900D01*
X97584805Y-158394996D01*
X97581271Y-158388549D01*
X97577108Y-158381537D01*
X97576025Y-158379687D01*
X97573813Y-158374180D01*
X97571786Y-158365868D01*
X97569938Y-158353809D01*
X97568261Y-158337063D01*
X97566745Y-158314687D01*
X97565383Y-158285740D01*
X97564167Y-158249280D01*
X97563089Y-158204367D01*
X97562140Y-158150057D01*
X97561312Y-158085410D01*
X97560597Y-158009484D01*
X97559987Y-157921338D01*
X97559942Y-157912493D01*
X97851378Y-157912493D01*
X97855260Y-157913765D01*
X97878520Y-157915791D01*
X97920874Y-157917626D01*
X97980132Y-157919227D01*
X98054107Y-157920549D01*
X98140610Y-157921548D01*
X98237452Y-157922180D01*
X98342445Y-157922400D01*
X99040651Y-157922400D01*
X100195090Y-157922400D01*
X100194456Y-157846200D01*
X100195574Y-157804160D01*
X100201304Y-157768334D01*
X100213890Y-157730772D01*
X100235568Y-157682577D01*
X100238789Y-157675897D01*
X100264188Y-157626359D01*
X100290996Y-157578369D01*
X100313917Y-157541466D01*
X100318485Y-157534834D01*
X100340516Y-157503593D01*
X100372693Y-157458654D01*
X100413457Y-157402147D01*
X100461245Y-157336204D01*
X100514498Y-157262957D01*
X100571655Y-157184536D01*
X100631155Y-157103072D01*
X100691437Y-157020698D01*
X100750940Y-156939544D01*
X100808105Y-156861742D01*
X100861370Y-156789423D01*
X100909174Y-156724718D01*
X100949957Y-156669759D01*
X100982158Y-156626676D01*
X101004216Y-156597602D01*
X101014571Y-156584667D01*
X101019044Y-156580351D01*
X101023236Y-156578312D01*
X101026643Y-156580926D01*
X101029325Y-156589986D01*
X101031341Y-156607285D01*
X101032748Y-156634614D01*
X101033605Y-156673765D01*
X101033970Y-156726533D01*
X101033903Y-156794707D01*
X101033460Y-156880082D01*
X101032702Y-156984449D01*
X101031685Y-157109600D01*
X101031308Y-157154300D01*
X101030169Y-157275395D01*
X101028972Y-157376688D01*
X101027636Y-157460262D01*
X101026077Y-157528204D01*
X101024215Y-157582599D01*
X101021966Y-157625532D01*
X101019248Y-157659089D01*
X101015979Y-157685355D01*
X101012078Y-157706416D01*
X101007461Y-157724357D01*
X100999192Y-157750770D01*
X100975583Y-157812772D01*
X100949685Y-157865573D01*
X100924535Y-157902645D01*
X100923339Y-157904075D01*
X100921168Y-157908424D01*
X100923328Y-157912026D01*
X100931644Y-157914951D01*
X100947940Y-157917269D01*
X100974041Y-157919051D01*
X101011771Y-157920367D01*
X101062956Y-157921286D01*
X101129420Y-157921878D01*
X101212987Y-157922215D01*
X101315483Y-157922365D01*
X101438732Y-157922400D01*
X101970296Y-157922400D01*
X101931523Y-157864783D01*
X101925432Y-157855893D01*
X101914976Y-157841069D01*
X101905579Y-157827422D01*
X101897183Y-157813765D01*
X101889733Y-157798911D01*
X101883173Y-157781670D01*
X101877446Y-157760855D01*
X101872495Y-157735280D01*
X101868266Y-157703755D01*
X101864701Y-157665093D01*
X101861744Y-157618107D01*
X101859340Y-157561608D01*
X101857431Y-157494409D01*
X101855962Y-157415322D01*
X101854876Y-157323160D01*
X101854118Y-157216734D01*
X101853630Y-157094857D01*
X101853358Y-156956341D01*
X101853243Y-156799999D01*
X101853231Y-156624642D01*
X101853265Y-156429082D01*
X101853289Y-156212133D01*
X101853280Y-156089513D01*
X101853243Y-155884447D01*
X101853227Y-155700116D01*
X101853288Y-155535334D01*
X101853484Y-155388916D01*
X101853870Y-155259674D01*
X101854505Y-155146422D01*
X101855444Y-155047975D01*
X101856745Y-154963144D01*
X101858464Y-154890744D01*
X101860659Y-154829589D01*
X101863385Y-154778492D01*
X101866701Y-154736267D01*
X101870662Y-154701727D01*
X101875325Y-154673686D01*
X101880747Y-154650958D01*
X101886986Y-154632356D01*
X101894097Y-154616693D01*
X101902138Y-154602784D01*
X101911166Y-154589441D01*
X101921236Y-154575479D01*
X101932407Y-154559711D01*
X101972197Y-154501867D01*
X100912314Y-154501867D01*
X100950311Y-154564966D01*
X100964993Y-154590005D01*
X100979531Y-154617586D01*
X100991627Y-154645700D01*
X101001532Y-154676551D01*
X101009494Y-154712344D01*
X101015761Y-154755283D01*
X101020582Y-154807574D01*
X101024206Y-154871419D01*
X101026881Y-154949025D01*
X101028857Y-155042594D01*
X101030382Y-155154333D01*
X101031704Y-155286445D01*
X101032613Y-155406434D01*
X101033020Y-155523063D01*
X101032767Y-155618531D01*
X101031857Y-155692556D01*
X101030293Y-155744855D01*
X101028079Y-155775149D01*
X101025220Y-155783156D01*
X101022161Y-155779858D01*
X101004006Y-155758408D01*
X100974275Y-155721889D01*
X100934639Y-155672442D01*
X100886771Y-155612207D01*
X100832343Y-155543327D01*
X100773027Y-155467943D01*
X100710495Y-155388196D01*
X100646421Y-155306228D01*
X100582475Y-155224180D01*
X100520331Y-155144194D01*
X100461661Y-155068411D01*
X100408137Y-154998973D01*
X100361430Y-154938021D01*
X100323214Y-154887696D01*
X100295161Y-154850140D01*
X100278943Y-154827495D01*
X100233635Y-154755212D01*
X100193661Y-154675463D01*
X100172130Y-154607188D01*
X100168827Y-154549844D01*
X100174116Y-154501867D01*
X99042356Y-154502117D01*
X99081867Y-154532722D01*
X99091248Y-154540089D01*
X99154183Y-154594438D01*
X99222997Y-154662259D01*
X99299596Y-154745516D01*
X99385888Y-154846178D01*
X99403052Y-154866847D01*
X99443833Y-154916409D01*
X99493588Y-154977326D01*
X99550955Y-155047898D01*
X99614569Y-155126424D01*
X99683069Y-155211204D01*
X99755090Y-155300537D01*
X99829270Y-155392722D01*
X99844517Y-155411702D01*
X99904246Y-155486060D01*
X99978653Y-155578848D01*
X100051131Y-155669388D01*
X100120314Y-155755978D01*
X100184841Y-155836918D01*
X100243347Y-155910506D01*
X100294470Y-155975044D01*
X100336847Y-156028829D01*
X100369115Y-156070162D01*
X100389910Y-156097342D01*
X100397869Y-156108668D01*
X100396111Y-156112771D01*
X100383230Y-156133334D01*
X100358885Y-156169561D01*
X100324247Y-156219824D01*
X100280486Y-156282492D01*
X100228775Y-156355936D01*
X100170284Y-156438527D01*
X100106184Y-156528636D01*
X100037646Y-156624631D01*
X99965843Y-156724885D01*
X99891944Y-156827768D01*
X99817121Y-156931650D01*
X99742545Y-157034901D01*
X99669387Y-157135892D01*
X99598819Y-157232994D01*
X99532011Y-157324577D01*
X99470135Y-157409011D01*
X99414361Y-157484667D01*
X99365862Y-157549916D01*
X99325807Y-157603128D01*
X99295369Y-157642673D01*
X99274944Y-157668026D01*
X99228899Y-157722295D01*
X99178612Y-157778775D01*
X99131815Y-157828669D01*
X99040651Y-157922400D01*
X98342445Y-157922400D01*
X98411356Y-157922349D01*
X98509607Y-157922091D01*
X98599030Y-157921637D01*
X98677333Y-157921010D01*
X98742223Y-157920235D01*
X98791411Y-157919335D01*
X98822604Y-157918334D01*
X98833511Y-157917257D01*
X98832322Y-157914037D01*
X98822176Y-157896452D01*
X98805040Y-157870158D01*
X98796540Y-157857691D01*
X98787329Y-157843622D01*
X98779233Y-157829351D01*
X98772185Y-157813479D01*
X98766117Y-157794609D01*
X98760961Y-157771341D01*
X98756651Y-157742278D01*
X98753119Y-157706021D01*
X98750297Y-157661170D01*
X98748118Y-157606328D01*
X98746514Y-157540097D01*
X98745419Y-157461077D01*
X98744765Y-157367871D01*
X98744484Y-157259079D01*
X98744509Y-157133303D01*
X98744772Y-156989145D01*
X98745206Y-156825207D01*
X98745745Y-156640089D01*
X98746279Y-156461232D01*
X98746805Y-156302374D01*
X98747350Y-156163316D01*
X98747945Y-156042665D01*
X98748619Y-155939028D01*
X98749403Y-155851011D01*
X98750326Y-155777223D01*
X98751419Y-155716269D01*
X98752712Y-155666757D01*
X98754235Y-155627293D01*
X98756019Y-155596484D01*
X98758092Y-155572938D01*
X98760486Y-155555260D01*
X98763230Y-155542059D01*
X98766356Y-155531940D01*
X98769892Y-155523511D01*
X98773791Y-155515375D01*
X98793438Y-155478544D01*
X98812225Y-155448391D01*
X98813272Y-155446908D01*
X98827602Y-155424659D01*
X98833511Y-155411702D01*
X98832504Y-155411249D01*
X98815305Y-155409803D01*
X98778656Y-155408480D01*
X98724962Y-155407316D01*
X98656630Y-155406347D01*
X98576064Y-155405611D01*
X98485670Y-155405142D01*
X98387853Y-155404978D01*
X97942195Y-155404978D01*
X97939120Y-156581845D01*
X97936045Y-157758711D01*
X97909407Y-157817622D01*
X97897485Y-157842183D01*
X97880246Y-157872434D01*
X97867074Y-157889560D01*
X97859076Y-157897591D01*
X97851378Y-157912493D01*
X97559942Y-157912493D01*
X97559474Y-157820029D01*
X97559050Y-157704617D01*
X97558706Y-157574160D01*
X97558434Y-157427716D01*
X97558227Y-157264344D01*
X97558076Y-157083101D01*
X97557972Y-156883048D01*
X97557908Y-156663241D01*
X97557876Y-156422739D01*
X97557867Y-156160602D01*
X97557867Y-153969031D01*
X97596249Y-153930649D01*
X97623355Y-153906911D01*
X97650253Y-153895111D01*
X97686560Y-153892267D01*
X97738489Y-153892267D01*
X97738489Y-153980206D01*
X97740427Y-154030102D01*
X97759199Y-154140523D01*
X97796217Y-154241987D01*
X97849369Y-154333152D01*
X97916546Y-154412673D01*
X97995638Y-154479205D01*
X98084534Y-154531406D01*
X98181125Y-154567930D01*
X98283300Y-154587434D01*
X98388950Y-154588573D01*
X98495964Y-154570005D01*
X98602232Y-154530384D01*
X98699219Y-154472516D01*
X98784293Y-154397684D01*
X98853015Y-154309615D01*
X98903918Y-154210616D01*
X98935535Y-154102993D01*
X98946400Y-153989054D01*
X98946400Y-153892267D01*
X100566753Y-153892267D01*
X100777897Y-153892280D01*
X100982020Y-153892330D01*
X101165686Y-153892430D01*
X101329991Y-153892592D01*
X101476029Y-153892829D01*
X101604894Y-153893153D01*
X101717683Y-153893575D01*
X101815488Y-153894109D01*
X101899404Y-153894767D01*
X101970527Y-153895561D01*
X102029950Y-153896504D01*
X102078768Y-153897608D01*
X102118077Y-153898884D01*
X102148969Y-153900347D01*
X102172541Y-153902007D01*
X102189886Y-153903878D01*
X102202099Y-153905972D01*
X102210275Y-153908300D01*
X102215508Y-153910876D01*
X102221504Y-153914445D01*
X102228279Y-153917978D01*
X102234478Y-153921488D01*
X102240126Y-153925918D01*
X102245247Y-153932208D01*
X102249869Y-153941301D01*
X102254015Y-153954139D01*
X102257713Y-153971662D01*
X102260987Y-153994813D01*
X102263863Y-154024534D01*
X102266367Y-154061765D01*
X102268524Y-154107449D01*
X102270360Y-154162527D01*
X102271900Y-154227941D01*
X102273170Y-154304633D01*
X102274195Y-154393544D01*
X102275001Y-154495617D01*
X102275034Y-154501867D01*
X102275614Y-154611792D01*
G37*
%TD*%
M02*
